<?xml version="1.0" encoding="UTF-8"?>
<svg xmlns="http://www.w3.org/2000/svg" width="740" height="500" viewBox="0 0 740 500" preserveAspectRatio="xMidYMid meet"><defs><style type="text/css">
      .radarArea { fill-opacity: 0.3; }
      .radarStroke { fill: none; stroke-width: 2px; }
      .radarCircle { fill-opacity: 0.8; }
      .axisLabel, .legend { font-family: sans-serif; font-size: 14px; fill: #737373; }
      .tooltip { font-family: sans-serif; font-size: 12px; fill: black; }
      .gridCircle { fill: #CDCDCD; stroke: #CDCDCD; fill-opacity: 0.1; }
      .line { stroke: white; stroke-width: 2px; }
    </style></defs><g transform="translate(320,250)"><defs><filter id="glow"><feGaussianBlur stdDeviation="2.5" result="coloredBlur"/><feMerge><feMergeNode in="coloredBlur"/><feMergeNode in="SourceGraphic"/></feMerge></filter></defs><g><circle class="gridCircle" r="200" style="fill: rgb(205, 205, 205); stroke: rgb(205, 205, 205); fill-opacity: 0.1; filter: url(&quot;#glow&quot;);"/><circle class="gridCircle" r="160" style="fill: rgb(205, 205, 205); stroke: rgb(205, 205, 205); fill-opacity: 0.1; filter: url(&quot;#glow&quot;);"/><circle class="gridCircle" r="120" style="fill: rgb(205, 205, 205); stroke: rgb(205, 205, 205); fill-opacity: 0.1; filter: url(&quot;#glow&quot;);"/><circle class="gridCircle" r="80" style="fill: rgb(205, 205, 205); stroke: rgb(205, 205, 205); fill-opacity: 0.1; filter: url(&quot;#glow&quot;);"/><circle class="gridCircle" r="40" style="fill: rgb(205, 205, 205); stroke: rgb(205, 205, 205); fill-opacity: 0.1; filter: url(&quot;#glow&quot;);"/><text x="-141.42135623730954" y="-141.42135623730948" dy="0.4em" font-family="sans-serif" font-size="10px" fill="#737373">1.0</text><text x="-113.13708498984764" y="-113.1370849898476" dy="0.4em" font-family="sans-serif" font-size="10px" fill="#737373">0.8</text><text x="-84.85281374238572" y="-84.85281374238569" dy="0.4em" font-family="sans-serif" font-size="10px" fill="#737373">0.6</text><text x="-56.56854249492382" y="-56.5685424949238" dy="0.4em" font-family="sans-serif" font-size="10px" fill="#737373">0.4</text><text x="-28.28427124746191" y="-28.2842712474619" dy="0.4em" font-family="sans-serif" font-size="10px" fill="#737373">0.2</text><g><line class="line" x1="0" y1="0" x2="1.3471114790620887e-14" y2="-220.00000000000003" style="stroke: white; stroke-width: 2px;"/><text class="axisLabel" text-anchor="middle" dy="0.35em" x="1.5308084989341916e-14" y="-250" font-family="sans-serif" font-size="14px" fill="#737373"><tspan x="1.5308084989341916e-14" y="-250" dy="0.35em"/><tspan x="1.5308084989341916e-14" y="-250" dy="1.75em">Predictivity</tspan></text></g><g><line class="line" x1="0" y1="0" x2="220.00000000000003" y2="0" style="stroke: white; stroke-width: 2px;"/><text class="axisLabel" text-anchor="middle" dy="0.35em" x="235" y="0" font-family="sans-serif" font-size="14px" fill="#737373"><tspan x="235" y="0" dy="0.35em">RSA</tspan></text></g><g><line class="line" x1="0" y1="0" x2="1.3471114790620887e-14" y2="220.00000000000003" style="stroke: white; stroke-width: 2px;"/><text class="axisLabel" text-anchor="middle" dy="0.35em" x="1.5308084989341916e-14" y="210" font-family="sans-serif" font-size="14px" fill="#737373"><tspan x="1.5308084989341916e-14" y="210" dy="0.35em"/><tspan x="1.5308084989341916e-14" y="210" dy="1.75em">Semanticity</tspan></text></g><g><line class="line" x1="0" y1="0" x2="-220.00000000000003" y2="2.6942229581241774e-14" style="stroke: white; stroke-width: 2px;"/><text class="axisLabel" text-anchor="middle" dy="0.35em" x="-270" y="-17.999999999999968" font-family="sans-serif" font-size="14px" fill="#737373"><tspan x="-270" y="-17.999999999999968" dy="0.35em"/><tspan x="-270" y="-17.999999999999968" dy="1.75em">Dimensionality</tspan></text></g></g><g><path class="radarArea" d="M3.6739403974420595e-17,-0.6C48.541666666666636,-0.6000000000000036,123.61111111111089,-0.18000000000000002,123.61111111111089,0S48.541666666666636,0.5999999999999963,3.6739403974420595e-17,0.6S-200,0.1800000000000245,-200,2.4492935982947064e-14S-48.541666666666636,-0.5999999999999963,3.6739403974420595e-17,-0.6" style="fill: rgb(31, 119, 180); fill-opacity: 0.35;"/><path class="radarStroke" d="M3.6739403974420595e-17,-0.6C48.541666666666636,-0.6000000000000036,123.61111111111089,-0.18000000000000002,123.61111111111089,0S48.541666666666636,0.5999999999999963,3.6739403974420595e-17,0.6S-200,0.1800000000000245,-200,2.4492935982947064e-14S-48.541666666666636,-0.5999999999999963,3.6739403974420595e-17,-0.6" style="stroke-width: 2px; stroke: rgb(31, 119, 180); fill: none; filter: url(&quot;#glow&quot;);"/><circle class="radarCircle" r="4" cx="3.6739403974420595e-17" cy="-0.6" style="fill: rgb(31, 119, 180); fill-opacity: 0.8;"/><circle class="radarCircle" r="4" cx="123.61111111111089" cy="0" style="fill: rgb(31, 119, 180); fill-opacity: 0.8;"/><circle class="radarCircle" r="4" cx="3.6739403974420595e-17" cy="0.6" style="fill: rgb(31, 119, 180); fill-opacity: 0.8;"/><circle class="radarCircle" r="4" cx="-200" cy="2.4492935982947064e-14" style="fill: rgb(31, 119, 180); fill-opacity: 0.8;"/></g><g><path class="radarArea" d="M1.2246467991473532e-14,-200C52.44567784600853,-200,183.3333333333334,-34.594594594594604,183.3333333333334,0S52.445677846008515,30.630630630630638,1.875585187883334e-15,30.63063063063064S-166.30451897339,34.594594594594625,-166.30451897339,2.0366429684450234e-14S-52.4456778460085,-200,1.2246467991473532e-14,-200" style="fill: rgb(255, 127, 14); fill-opacity: 0.35;"/><path class="radarStroke" d="M1.2246467991473532e-14,-200C52.44567784600853,-200,183.3333333333334,-34.594594594594604,183.3333333333334,0S52.445677846008515,30.630630630630638,1.875585187883334e-15,30.63063063063064S-166.30451897339,34.594594594594625,-166.30451897339,2.0366429684450234e-14S-52.4456778460085,-200,1.2246467991473532e-14,-200" style="stroke-width: 2px; stroke: rgb(255, 127, 14); fill: none; filter: url(&quot;#glow&quot;);"/><circle class="radarCircle" r="4" cx="1.2246467991473532e-14" cy="-200" style="fill: rgb(255, 127, 14); fill-opacity: 0.8;"/><circle class="radarCircle" r="4" cx="183.3333333333334" cy="0" style="fill: rgb(255, 127, 14); fill-opacity: 0.8;"/><circle class="radarCircle" r="4" cx="1.875585187883334e-15" cy="30.63063063063064" style="fill: rgb(255, 127, 14); fill-opacity: 0.8;"/><circle class="radarCircle" r="4" cx="-166.30451897339" cy="2.0366429684450234e-14" style="fill: rgb(255, 127, 14); fill-opacity: 0.8;"/></g><g><path class="radarArea" d="M1.0471617557926641e-14,-171.01449275362316C32.6688710439301,-171.01449275362316,200,-40.38190364277322,200,0S32.6688710439301,98.19819819819821,6.0129054552730415e-15,98.19819819819821S-17.7924736262006,40.38190364277322,-17.7924736262006,2.1789495875240264e-15S-32.66887104393009,-171.01449275362316,1.0471617557926641e-14,-171.01449275362316" style="fill: rgb(44, 160, 44); fill-opacity: 0.35;"/><path class="radarStroke" d="M1.0471617557926641e-14,-171.01449275362316C32.6688710439301,-171.01449275362316,200,-40.38190364277322,200,0S32.6688710439301,98.19819819819821,6.0129054552730415e-15,98.19819819819821S-17.7924736262006,40.38190364277322,-17.7924736262006,2.1789495875240264e-15S-32.66887104393009,-171.01449275362316,1.0471617557926641e-14,-171.01449275362316" style="stroke-width: 2px; stroke: rgb(44, 160, 44); fill: none; filter: url(&quot;#glow&quot;);"/><circle class="radarCircle" r="4" cx="1.0471617557926641e-14" cy="-171.01449275362316" style="fill: rgb(44, 160, 44); fill-opacity: 0.8;"/><circle class="radarCircle" r="4" cx="200" cy="0" style="fill: rgb(44, 160, 44); fill-opacity: 0.8;"/><circle class="radarCircle" r="4" cx="6.0129054552730415e-15" cy="98.19819819819821" style="fill: rgb(44, 160, 44); fill-opacity: 0.8;"/><circle class="radarCircle" r="4" cx="-17.7924736262006" cy="2.1789495875240264e-15" style="fill: rgb(44, 160, 44); fill-opacity: 0.8;"/></g><g><path class="radarArea" d="M3.313054142620857e-15,-54.106280193236685C2.6313320736891868,-54.106280193236685,0.5999999999999989,-35.0078339208774,0.6,0S2.6313320736891948,179.2792792792793,1.0977689776140691e-14,179.2792792792793S-16.942213824594553,35.0078339208774,-16.942213824594553,2.0748227930759757e-15S-2.6313320736891805,-54.106280193236685,3.313054142620857e-15,-54.106280193236685" style="fill: rgb(214, 39, 40); fill-opacity: 0.35;"/><path class="radarStroke" d="M3.313054142620857e-15,-54.106280193236685C2.6313320736891868,-54.106280193236685,0.5999999999999989,-35.0078339208774,0.6,0S2.6313320736891948,179.2792792792793,1.0977689776140691e-14,179.2792792792793S-16.942213824594553,35.0078339208774,-16.942213824594553,2.0748227930759757e-15S-2.6313320736891805,-54.106280193236685,3.313054142620857e-15,-54.106280193236685" style="stroke-width: 2px; stroke: rgb(214, 39, 40); fill: none; filter: url(&quot;#glow&quot;);"/><circle class="radarCircle" r="4" cx="3.313054142620857e-15" cy="-54.106280193236685" style="fill: rgb(214, 39, 40); fill-opacity: 0.8;"/><circle class="radarCircle" r="4" cx="0.6" cy="0" style="fill: rgb(214, 39, 40); fill-opacity: 0.8;"/><circle class="radarCircle" r="4" cx="1.0977689776140691e-14" cy="179.2792792792793" style="fill: rgb(214, 39, 40); fill-opacity: 0.8;"/><circle class="radarCircle" r="4" cx="-16.942213824594553" cy="2.0748227930759757e-15" style="fill: rgb(214, 39, 40); fill-opacity: 0.8;"/></g><g><path class="radarArea" d="M2.070658839138035e-15,-33.81642512077292C5.7150000000000025,-33.81642512077292,37.5,-35.072463768115945,37.5,0S5.715000000000013,200,1.2246467991473532e-14,200S-0.5999999999999984,35.072463768115945,-0.6,7.347880794884119e-17S-5.714999999999999,-33.81642512077292,2.070658839138035e-15,-33.81642512077292" style="fill: rgb(148, 103, 189); fill-opacity: 0.35;"/><path class="radarStroke" d="M2.070658839138035e-15,-33.81642512077292C5.7150000000000025,-33.81642512077292,37.5,-35.072463768115945,37.5,0S5.715000000000013,200,1.2246467991473532e-14,200S-0.5999999999999984,35.072463768115945,-0.6,7.347880794884119e-17S-5.714999999999999,-33.81642512077292,2.070658839138035e-15,-33.81642512077292" style="stroke-width: 2px; stroke: rgb(148, 103, 189); fill: none; filter: url(&quot;#glow&quot;);"/><circle class="radarCircle" r="4" cx="2.070658839138035e-15" cy="-33.81642512077292" style="fill: rgb(148, 103, 189); fill-opacity: 0.8;"/><circle class="radarCircle" r="4" cx="37.5" cy="0" style="fill: rgb(148, 103, 189); fill-opacity: 0.8;"/><circle class="radarCircle" r="4" cx="1.2246467991473532e-14" cy="200" style="fill: rgb(148, 103, 189); fill-opacity: 0.8;"/><circle class="radarCircle" r="4" cx="-0.6" cy="7.347880794884119e-17" style="fill: rgb(148, 103, 189); fill-opacity: 0.8;"/></g><text class="tooltip" style="opacity: 0;"/></g><g class="legend" transform="translate(560, 50)"><circle cx="9" cy="9" r="9" style="fill: rgb(31, 119, 180); fill-opacity: 0.35; stroke: rgb(31, 119, 180); stroke-width: 2px;"/><circle cx="9" cy="34" r="9" style="fill: rgb(255, 127, 14); fill-opacity: 0.35; stroke: rgb(255, 127, 14); stroke-width: 2px;"/><circle cx="9" cy="59" r="9" style="fill: rgb(44, 160, 44); fill-opacity: 0.35; stroke: rgb(44, 160, 44); stroke-width: 2px;"/><circle cx="9" cy="84" r="9" style="fill: rgb(214, 39, 40); fill-opacity: 0.35; stroke: rgb(214, 39, 40); stroke-width: 2px;"/><circle cx="9" cy="109" r="9" style="fill: rgb(148, 103, 189); fill-opacity: 0.35; stroke: rgb(148, 103, 189); stroke-width: 2px;"/><text x="25" y="13" font-family="sans-serif" font-size="14px" fill="#737373">layer1</text><text x="25" y="38" font-family="sans-serif" font-size="14px" fill="#737373">layer2</text><text x="25" y="63" font-family="sans-serif" font-size="14px" fill="#737373">layer3</text><text x="25" y="88" font-family="sans-serif" font-size="14px" fill="#737373">layer4</text><text x="25" y="113" font-family="sans-serif" font-size="14px" fill="#737373">fc</text></g></svg>