<?xml version="1.0" encoding="UTF-8"?>
<svg xmlns="http://www.w3.org/2000/svg" width="740" height="500" viewBox="0 0 740 500" preserveAspectRatio="xMidYMid meet"><defs><style type="text/css">
      .radarArea { fill-opacity: 0.3; }
      .radarStroke { fill: none; stroke-width: 2px; }
      .radarCircle { fill-opacity: 0.8; }
      .axisLabel, .legend { font-family: sans-serif; font-size: 14px; fill: #737373; }
      .tooltip { font-family: sans-serif; font-size: 12px; fill: black; }
      .gridCircle { fill: #CDCDCD; stroke: #CDCDCD; fill-opacity: 0.1; }
      .line { stroke: white; stroke-width: 2px; }
    </style></defs><g transform="translate(320,250)"><defs><filter id="glow"><feGaussianBlur stdDeviation="2.5" result="coloredBlur"/><feMerge><feMergeNode in="coloredBlur"/><feMergeNode in="SourceGraphic"/></feMerge></filter></defs><g><circle class="gridCircle" r="200" style="fill: rgb(205, 205, 205); stroke: rgb(205, 205, 205); fill-opacity: 0.1; filter: url(&quot;#glow&quot;);"/><circle class="gridCircle" r="160" style="fill: rgb(205, 205, 205); stroke: rgb(205, 205, 205); fill-opacity: 0.1; filter: url(&quot;#glow&quot;);"/><circle class="gridCircle" r="120" style="fill: rgb(205, 205, 205); stroke: rgb(205, 205, 205); fill-opacity: 0.1; filter: url(&quot;#glow&quot;);"/><circle class="gridCircle" r="80" style="fill: rgb(205, 205, 205); stroke: rgb(205, 205, 205); fill-opacity: 0.1; filter: url(&quot;#glow&quot;);"/><circle class="gridCircle" r="40" style="fill: rgb(205, 205, 205); stroke: rgb(205, 205, 205); fill-opacity: 0.1; filter: url(&quot;#glow&quot;);"/><text x="-141.42135623730954" y="-141.42135623730948" dy="0.4em" font-family="sans-serif" font-size="10px" fill="#737373">1.0</text><text x="-113.13708498984764" y="-113.1370849898476" dy="0.4em" font-family="sans-serif" font-size="10px" fill="#737373">0.8</text><text x="-84.85281374238572" y="-84.85281374238569" dy="0.4em" font-family="sans-serif" font-size="10px" fill="#737373">0.6</text><text x="-56.56854249492382" y="-56.5685424949238" dy="0.4em" font-family="sans-serif" font-size="10px" fill="#737373">0.4</text><text x="-28.28427124746191" y="-28.2842712474619" dy="0.4em" font-family="sans-serif" font-size="10px" fill="#737373">0.2</text><g><line class="line" x1="0" y1="0" x2="1.3471114790620887e-14" y2="-220.00000000000003" style="stroke: white; stroke-width: 2px;"/><text class="axisLabel" text-anchor="middle" dy="0.35em" x="1.5308084989341916e-14" y="-250" font-family="sans-serif" font-size="14px" fill="#737373"><tspan x="1.5308084989341916e-14" y="-250" dy="0.35em"/><tspan x="1.5308084989341916e-14" y="-250" dy="1.75em">Predictivity</tspan></text></g><g><line class="line" x1="0" y1="0" x2="220.00000000000003" y2="0" style="stroke: white; stroke-width: 2px;"/><text class="axisLabel" text-anchor="middle" dy="0.35em" x="235" y="0" font-family="sans-serif" font-size="14px" fill="#737373"><tspan x="235" y="0" dy="0.35em">RSA</tspan></text></g><g><line class="line" x1="0" y1="0" x2="1.3471114790620887e-14" y2="220.00000000000003" style="stroke: white; stroke-width: 2px;"/><text class="axisLabel" text-anchor="middle" dy="0.35em" x="1.5308084989341916e-14" y="210" font-family="sans-serif" font-size="14px" fill="#737373"><tspan x="1.5308084989341916e-14" y="210" dy="0.35em"/><tspan x="1.5308084989341916e-14" y="210" dy="1.75em">Semanticity</tspan></text></g><g><line class="line" x1="0" y1="0" x2="-220.00000000000003" y2="2.6942229581241774e-14" style="stroke: white; stroke-width: 2px;"/><text class="axisLabel" text-anchor="middle" dy="0.35em" x="-270" y="-17.999999999999968" font-family="sans-serif" font-size="14px" fill="#737373"><tspan x="-270" y="-17.999999999999968" dy="0.35em"/><tspan x="-270" y="-17.999999999999968" dy="1.75em">Dimensionality</tspan></text></g></g><g><path class="radarArea" d="M7.430441253253602e-15,-121.34831460674155C26.38955947136562,-121.34831460674155,175.33039647577073,-18.292247191011235,175.33039647577073,0S26.38955947136561,0.5999999999999998,3.673940397442058e-17,0.5999999999999998S-0.6000000000000009,18.292247191011235,-0.5999999999999998,7.347880794884117e-17S-26.389559471365605,-121.34831460674155,7.430441253253602e-15,-121.34831460674155" style="fill: rgb(31, 119, 180); fill-opacity: 0.35;"/><path class="radarStroke" d="M7.430441253253602e-15,-121.34831460674155C26.38955947136562,-121.34831460674155,175.33039647577073,-18.292247191011235,175.33039647577073,0S26.38955947136561,0.5999999999999998,3.673940397442058e-17,0.5999999999999998S-0.6000000000000009,18.292247191011235,-0.5999999999999998,7.347880794884117e-17S-26.389559471365605,-121.34831460674155,7.430441253253602e-15,-121.34831460674155" style="stroke-width: 2px; stroke: rgb(31, 119, 180); fill: none; filter: url(&quot;#glow&quot;);"/><circle class="radarCircle" r="4" cx="7.430441253253602e-15" cy="-121.34831460674155" style="fill: rgb(31, 119, 180); fill-opacity: 0.8;"/><circle class="radarCircle" r="4" cx="175.33039647577073" cy="0" style="fill: rgb(31, 119, 180); fill-opacity: 0.8;"/><circle class="radarCircle" r="4" cx="3.673940397442058e-17" cy="0.5999999999999998" style="fill: rgb(31, 119, 180); fill-opacity: 0.8;"/><circle class="radarCircle" r="4" cx="-0.5999999999999998" cy="7.347880794884117e-17" style="fill: rgb(31, 119, 180); fill-opacity: 0.8;"/></g><g><path class="radarArea" d="M3.1648175708302367e-15,-51.685393258426934C39.250210614995794,-51.685393258426934,199.99999999999991,-9.704481851217572,199.99999999999991,0S39.250210614995794,13.011152416356873,7.9670330799548985e-16,13.011152416356875S-61.668070766638714,9.70448185121758,-61.668070766638714,7.552160547395657e-15S-39.250210614995794,-51.685393258426934,3.1648175708302367e-15,-51.685393258426934" style="fill: rgb(255, 127, 14); fill-opacity: 0.35;"/><path class="radarStroke" d="M3.1648175708302367e-15,-51.685393258426934C39.250210614995794,-51.685393258426934,199.99999999999991,-9.704481851217572,199.99999999999991,0S39.250210614995794,13.011152416356873,7.9670330799548985e-16,13.011152416356875S-61.668070766638714,9.70448185121758,-61.668070766638714,7.552160547395657e-15S-39.250210614995794,-51.685393258426934,3.1648175708302367e-15,-51.685393258426934" style="stroke-width: 2px; stroke: rgb(255, 127, 14); fill: none; filter: url(&quot;#glow&quot;);"/><circle class="radarCircle" r="4" cx="3.1648175708302367e-15" cy="-51.685393258426934" style="fill: rgb(255, 127, 14); fill-opacity: 0.8;"/><circle class="radarCircle" r="4" cx="199.99999999999991" cy="0" style="fill: rgb(255, 127, 14); fill-opacity: 0.8;"/><circle class="radarCircle" r="4" cx="7.9670330799548985e-16" cy="13.011152416356875" style="fill: rgb(255, 127, 14); fill-opacity: 0.8;"/><circle class="radarCircle" r="4" cx="-61.668070766638714" cy="7.552160547395657e-15" style="fill: rgb(255, 127, 14); fill-opacity: 0.8;"/></g><g><path class="radarArea" d="M1.2246467991473527e-14,-199.99999999999991C36.211231067845866,-199.99999999999991,125.99118942731266,-35.07434944237917,125.99118942731266,0S36.21123106784585,33.82899628252787,2.0714286007882733e-15,33.82899628252787S-115.41701769165962,35.07434944237919,-115.41701769165962,1.413450812832244e-14S-36.21123106784584,-199.99999999999991,1.2246467991473527e-14,-199.99999999999991" style="fill: rgb(44, 160, 44); fill-opacity: 0.35;"/><path class="radarStroke" d="M1.2246467991473527e-14,-199.99999999999991C36.211231067845866,-199.99999999999991,125.99118942731266,-35.07434944237917,125.99118942731266,0S36.21123106784585,33.82899628252787,2.0714286007882733e-15,33.82899628252787S-115.41701769165962,35.07434944237919,-115.41701769165962,1.413450812832244e-14S-36.21123106784584,-199.99999999999991,1.2246467991473527e-14,-199.99999999999991" style="stroke-width: 2px; stroke: rgb(44, 160, 44); fill: none; filter: url(&quot;#glow&quot;);"/><circle class="radarCircle" r="4" cx="1.2246467991473527e-14" cy="-199.99999999999991" style="fill: rgb(44, 160, 44); fill-opacity: 0.8;"/><circle class="radarCircle" r="4" cx="125.99118942731266" cy="0" style="fill: rgb(44, 160, 44); fill-opacity: 0.8;"/><circle class="radarCircle" r="4" cx="2.0714286007882733e-15" cy="33.82899628252787" style="fill: rgb(44, 160, 44); fill-opacity: 0.8;"/><circle class="radarCircle" r="4" cx="-115.41701769165962" cy="1.413450812832244e-14" style="fill: rgb(44, 160, 44); fill-opacity: 0.8;"/></g><g><path class="radarArea" d="M8.256045836948465e-16,-13.483146067415758C38.32599118942731,-13.483146067415761,55.50660792951538,-21.148865962156968,55.50660792951538,0S38.32599118942732,127.50929368029733,7.807692418355799e-15,127.50929368029733S-200,21.148865962156993,-200,2.4492935982947064e-14S-38.32599118942731,-13.483146067415754,8.256045836948465e-16,-13.483146067415758" style="fill: rgb(214, 39, 40); fill-opacity: 0.35;"/><path class="radarStroke" d="M8.256045836948465e-16,-13.483146067415758C38.32599118942731,-13.483146067415761,55.50660792951538,-21.148865962156968,55.50660792951538,0S38.32599118942732,127.50929368029733,7.807692418355799e-15,127.50929368029733S-200,21.148865962156993,-200,2.4492935982947064e-14S-38.32599118942731,-13.483146067415754,8.256045836948465e-16,-13.483146067415758" style="stroke-width: 2px; stroke: rgb(214, 39, 40); fill: none; filter: url(&quot;#glow&quot;);"/><circle class="radarCircle" r="4" cx="8.256045836948465e-16" cy="-13.483146067415758" style="fill: rgb(214, 39, 40); fill-opacity: 0.8;"/><circle class="radarCircle" r="4" cx="55.50660792951538" cy="0" style="fill: rgb(214, 39, 40); fill-opacity: 0.8;"/><circle class="radarCircle" r="4" cx="7.807692418355799e-15" cy="127.50929368029733" style="fill: rgb(214, 39, 40); fill-opacity: 0.8;"/><circle class="radarCircle" r="4" cx="-200" cy="2.4492935982947064e-14" style="fill: rgb(214, 39, 40); fill-opacity: 0.8;"/></g><g><path class="radarArea" d="M3.673940397442058e-17,-0.5999999999999998C14.672982308340362,-0.6000000000000015,0.599999999999998,-30.08999999999999,0.5999999999999998,0S14.672982308340375,199.99999999999991,1.2246467991473527e-14,199.99999999999991S-97.21988205560241,30.09,-97.21988205560241,1.190600173728767e-14S-14.672982308340362,-0.599999999999998,3.673940397442058e-17,-0.5999999999999998" style="fill: rgb(148, 103, 189); fill-opacity: 0.35;"/><path class="radarStroke" d="M3.673940397442058e-17,-0.5999999999999998C14.672982308340362,-0.6000000000000015,0.599999999999998,-30.08999999999999,0.5999999999999998,0S14.672982308340375,199.99999999999991,1.2246467991473527e-14,199.99999999999991S-97.21988205560241,30.09,-97.21988205560241,1.190600173728767e-14S-14.672982308340362,-0.599999999999998,3.673940397442058e-17,-0.5999999999999998" style="stroke-width: 2px; stroke: rgb(148, 103, 189); fill: none; filter: url(&quot;#glow&quot;);"/><circle class="radarCircle" r="4" cx="3.673940397442058e-17" cy="-0.5999999999999998" style="fill: rgb(148, 103, 189); fill-opacity: 0.8;"/><circle class="radarCircle" r="4" cx="0.5999999999999998" cy="0" style="fill: rgb(148, 103, 189); fill-opacity: 0.8;"/><circle class="radarCircle" r="4" cx="1.2246467991473527e-14" cy="199.99999999999991" style="fill: rgb(148, 103, 189); fill-opacity: 0.8;"/><circle class="radarCircle" r="4" cx="-97.21988205560241" cy="1.190600173728767e-14" style="fill: rgb(148, 103, 189); fill-opacity: 0.8;"/></g><text class="tooltip" style="opacity: 0;"/></g><g class="legend" transform="translate(560, 50)"><circle cx="9" cy="9" r="9" style="fill: rgb(31, 119, 180); fill-opacity: 0.35; stroke: rgb(31, 119, 180); stroke-width: 2px;"/><circle cx="9" cy="34" r="9" style="fill: rgb(255, 127, 14); fill-opacity: 0.35; stroke: rgb(255, 127, 14); stroke-width: 2px;"/><circle cx="9" cy="59" r="9" style="fill: rgb(44, 160, 44); fill-opacity: 0.35; stroke: rgb(44, 160, 44); stroke-width: 2px;"/><circle cx="9" cy="84" r="9" style="fill: rgb(214, 39, 40); fill-opacity: 0.35; stroke: rgb(214, 39, 40); stroke-width: 2px;"/><circle cx="9" cy="109" r="9" style="fill: rgb(148, 103, 189); fill-opacity: 0.35; stroke: rgb(148, 103, 189); stroke-width: 2px;"/><text x="25" y="13" font-family="sans-serif" font-size="14px" fill="#737373">conv2_2</text><text x="25" y="38" font-family="sans-serif" font-size="14px" fill="#737373">conv3_4</text><text x="25" y="63" font-family="sans-serif" font-size="14px" fill="#737373">conv4_4</text><text x="25" y="88" font-family="sans-serif" font-size="14px" fill="#737373">conv5_4</text><text x="25" y="113" font-family="sans-serif" font-size="14px" fill="#737373">fc2</text></g></svg>