<?xml version="1.0" encoding="utf-8" standalone="no"?>
<!DOCTYPE svg PUBLIC "-//W3C//DTD SVG 1.1//EN"
  "http://www.w3.org/Graphics/SVG/1.1/DTD/svg11.dtd">
<svg xmlns:xlink="http://www.w3.org/1999/xlink" width="432pt" height="360pt" viewBox="0 0 432 360" xmlns="http://www.w3.org/2000/svg" version="1.1">
 <metadata>
  <rdf:RDF xmlns:dc="http://purl.org/dc/elements/1.1/" xmlns:cc="http://creativecommons.org/ns#" xmlns:rdf="http://www.w3.org/1999/02/22-rdf-syntax-ns#">
   <cc:Work>
    <dc:type rdf:resource="http://purl.org/dc/dcmitype/StillImage"/>
    <dc:date>2025-08-28T17:03:15.195344</dc:date>
    <dc:format>image/svg+xml</dc:format>
    <dc:creator>
     <cc:Agent>
      <dc:title>Matplotlib v3.9.2, https://matplotlib.org/</dc:title>
     </cc:Agent>
    </dc:creator>
   </cc:Work>
  </rdf:RDF>
 </metadata>
 <defs>
  <style type="text/css">*{stroke-linejoin: round; stroke-linecap: butt}</style>
 </defs>
 <g id="figure_1">
  <g id="patch_1">
   <path d="M 0 360 
L 432 360 
L 432 0 
L 0 0 
z
" style="fill: #ffffff"/>
  </g>
  <g id="axes_1">
   <g id="patch_2">
    <path d="M 60.02 285.654503 
L 421.2 285.654503 
L 421.2 10.8 
L 60.02 10.8 
z
" style="fill: #ffffff"/>
   </g>
   <g id="patch_3">
    <path d="M 76.437273 285.654503 
L 103.240983 285.654503 
L 103.240983 77.309982 
L 76.437273 77.309982 
z
" clip-path="url(#p5fc20ef836)" style="fill: #bdd7e7"/>
   </g>
   <g id="patch_4">
    <path d="M 109.941911 285.654503 
L 136.745622 285.654503 
L 136.745622 61.995769 
L 109.941911 61.995769 
z
" clip-path="url(#p5fc20ef836)" style="fill: #3182bd"/>
   </g>
   <g id="patch_5">
    <path d="M 143.446549 285.654503 
L 170.25026 285.654503 
L 170.25026 57.722035 
L 143.446549 57.722035 
z
" clip-path="url(#p5fc20ef836)" style="fill: #3182bd"/>
   </g>
   <g id="patch_6">
    <path d="M 176.951187 285.654503 
L 203.754898 285.654503 
L 203.754898 109.006841 
L 176.951187 109.006841 
z
" clip-path="url(#p5fc20ef836)" style="fill: #bdd7e7"/>
   </g>
   <g id="patch_7">
    <path d="M 210.455826 285.654503 
L 237.259536 285.654503 
L 237.259536 99.39094 
L 210.455826 99.39094 
z
" clip-path="url(#p5fc20ef836)" style="fill: #bdd7e7"/>
   </g>
   <g id="patch_8">
    <path d="M 243.960464 285.654503 
L 270.764174 285.654503 
L 270.764174 139.279122 
L 243.960464 139.279122 
z
" clip-path="url(#p5fc20ef836)" style="fill: #fcae91"/>
   </g>
   <g id="patch_9">
    <path d="M 277.465102 285.654503 
L 304.268813 285.654503 
L 304.268813 129.307076 
L 277.465102 129.307076 
z
" clip-path="url(#p5fc20ef836)" style="fill: #fcae91"/>
   </g>
   <g id="patch_10">
    <path d="M 310.96974 285.654503 
L 337.773451 285.654503 
L 337.773451 159.223213 
L 310.96974 159.223213 
z
" clip-path="url(#p5fc20ef836)" style="fill: #fcae91"/>
   </g>
   <g id="patch_11">
    <path d="M 344.474378 285.654503 
L 371.278089 285.654503 
L 371.278089 187.714771 
L 344.474378 187.714771 
z
" clip-path="url(#p5fc20ef836)" style="fill: #fcae91"/>
   </g>
   <g id="patch_12">
    <path d="M 377.979017 285.654503 
L 404.782727 285.654503 
L 404.782727 210.151873 
L 377.979017 210.151873 
z
" clip-path="url(#p5fc20ef836)" style="fill: #fcae91"/>
   </g>
   <g id="matplotlib.axis_1">
    <g id="xtick_1">
     <g id="line2d_1">
      <defs>
       <path id="mf2368c22ac" d="M 0 0 
L 0 3.5 
" style="stroke: #000000; stroke-width: 0.8"/>
      </defs>
      <g>
       <use xlink:href="#mf2368c22ac" x="89.839128" y="285.654503" style="stroke: #000000; stroke-width: 0.8"/>
      </g>
     </g>
     <g id="text_1">
      <!-- layer1 -->
      <g transform="translate(66.128954 320.267023) rotate(-45) scale(0.1 -0.1)">
       <defs>
        <path id="DejaVuSans-6c" d="M 603 4863 
L 1178 4863 
L 1178 0 
L 603 0 
L 603 4863 
z
" transform="scale(0.015625)"/>
        <path id="DejaVuSans-61" d="M 2194 1759 
Q 1497 1759 1228 1600 
Q 959 1441 959 1056 
Q 959 750 1161 570 
Q 1363 391 1709 391 
Q 2188 391 2477 730 
Q 2766 1069 2766 1631 
L 2766 1759 
L 2194 1759 
z
M 3341 1997 
L 3341 0 
L 2766 0 
L 2766 531 
Q 2569 213 2275 61 
Q 1981 -91 1556 -91 
Q 1019 -91 701 211 
Q 384 513 384 1019 
Q 384 1609 779 1909 
Q 1175 2209 1959 2209 
L 2766 2209 
L 2766 2266 
Q 2766 2663 2505 2880 
Q 2244 3097 1772 3097 
Q 1472 3097 1187 3025 
Q 903 2953 641 2809 
L 641 3341 
Q 956 3463 1253 3523 
Q 1550 3584 1831 3584 
Q 2591 3584 2966 3190 
Q 3341 2797 3341 1997 
z
" transform="scale(0.015625)"/>
        <path id="DejaVuSans-79" d="M 2059 -325 
Q 1816 -950 1584 -1140 
Q 1353 -1331 966 -1331 
L 506 -1331 
L 506 -850 
L 844 -850 
Q 1081 -850 1212 -737 
Q 1344 -625 1503 -206 
L 1606 56 
L 191 3500 
L 800 3500 
L 1894 763 
L 2988 3500 
L 3597 3500 
L 2059 -325 
z
" transform="scale(0.015625)"/>
        <path id="DejaVuSans-65" d="M 3597 1894 
L 3597 1613 
L 953 1613 
Q 991 1019 1311 708 
Q 1631 397 2203 397 
Q 2534 397 2845 478 
Q 3156 559 3463 722 
L 3463 178 
Q 3153 47 2828 -22 
Q 2503 -91 2169 -91 
Q 1331 -91 842 396 
Q 353 884 353 1716 
Q 353 2575 817 3079 
Q 1281 3584 2069 3584 
Q 2775 3584 3186 3129 
Q 3597 2675 3597 1894 
z
M 3022 2063 
Q 3016 2534 2758 2815 
Q 2500 3097 2075 3097 
Q 1594 3097 1305 2825 
Q 1016 2553 972 2059 
L 3022 2063 
z
" transform="scale(0.015625)"/>
        <path id="DejaVuSans-72" d="M 2631 2963 
Q 2534 3019 2420 3045 
Q 2306 3072 2169 3072 
Q 1681 3072 1420 2755 
Q 1159 2438 1159 1844 
L 1159 0 
L 581 0 
L 581 3500 
L 1159 3500 
L 1159 2956 
Q 1341 3275 1631 3429 
Q 1922 3584 2338 3584 
Q 2397 3584 2469 3576 
Q 2541 3569 2628 3553 
L 2631 2963 
z
" transform="scale(0.015625)"/>
        <path id="DejaVuSans-31" d="M 794 531 
L 1825 531 
L 1825 4091 
L 703 3866 
L 703 4441 
L 1819 4666 
L 2450 4666 
L 2450 531 
L 3481 531 
L 3481 0 
L 794 0 
L 794 531 
z
" transform="scale(0.015625)"/>
       </defs>
       <use xlink:href="#DejaVuSans-6c"/>
       <use xlink:href="#DejaVuSans-61" x="27.783203"/>
       <use xlink:href="#DejaVuSans-79" x="89.0625"/>
       <use xlink:href="#DejaVuSans-65" x="148.242188"/>
       <use xlink:href="#DejaVuSans-72" x="209.765625"/>
       <use xlink:href="#DejaVuSans-31" x="250.878906"/>
      </g>
     </g>
    </g>
    <g id="xtick_2">
     <g id="line2d_2">
      <g>
       <use xlink:href="#mf2368c22ac" x="123.343766" y="285.654503" style="stroke: #000000; stroke-width: 0.8"/>
      </g>
     </g>
     <g id="text_2">
      <!-- layer2 -->
      <g transform="translate(99.633592 320.267023) rotate(-45) scale(0.1 -0.1)">
       <defs>
        <path id="DejaVuSans-32" d="M 1228 531 
L 3431 531 
L 3431 0 
L 469 0 
L 469 531 
Q 828 903 1448 1529 
Q 2069 2156 2228 2338 
Q 2531 2678 2651 2914 
Q 2772 3150 2772 3378 
Q 2772 3750 2511 3984 
Q 2250 4219 1831 4219 
Q 1534 4219 1204 4116 
Q 875 4013 500 3803 
L 500 4441 
Q 881 4594 1212 4672 
Q 1544 4750 1819 4750 
Q 2544 4750 2975 4387 
Q 3406 4025 3406 3419 
Q 3406 3131 3298 2873 
Q 3191 2616 2906 2266 
Q 2828 2175 2409 1742 
Q 1991 1309 1228 531 
z
" transform="scale(0.015625)"/>
       </defs>
       <use xlink:href="#DejaVuSans-6c"/>
       <use xlink:href="#DejaVuSans-61" x="27.783203"/>
       <use xlink:href="#DejaVuSans-79" x="89.0625"/>
       <use xlink:href="#DejaVuSans-65" x="148.242188"/>
       <use xlink:href="#DejaVuSans-72" x="209.765625"/>
       <use xlink:href="#DejaVuSans-32" x="250.878906"/>
      </g>
     </g>
    </g>
    <g id="xtick_3">
     <g id="line2d_3">
      <g>
       <use xlink:href="#mf2368c22ac" x="156.848404" y="285.654503" style="stroke: #000000; stroke-width: 0.8"/>
      </g>
     </g>
     <g id="text_3">
      <!-- layer3 -->
      <g transform="translate(133.13823 320.267023) rotate(-45) scale(0.1 -0.1)">
       <defs>
        <path id="DejaVuSans-33" d="M 2597 2516 
Q 3050 2419 3304 2112 
Q 3559 1806 3559 1356 
Q 3559 666 3084 287 
Q 2609 -91 1734 -91 
Q 1441 -91 1130 -33 
Q 819 25 488 141 
L 488 750 
Q 750 597 1062 519 
Q 1375 441 1716 441 
Q 2309 441 2620 675 
Q 2931 909 2931 1356 
Q 2931 1769 2642 2001 
Q 2353 2234 1838 2234 
L 1294 2234 
L 1294 2753 
L 1863 2753 
Q 2328 2753 2575 2939 
Q 2822 3125 2822 3475 
Q 2822 3834 2567 4026 
Q 2313 4219 1838 4219 
Q 1578 4219 1281 4162 
Q 984 4106 628 3988 
L 628 4550 
Q 988 4650 1302 4700 
Q 1616 4750 1894 4750 
Q 2613 4750 3031 4423 
Q 3450 4097 3450 3541 
Q 3450 3153 3228 2886 
Q 3006 2619 2597 2516 
z
" transform="scale(0.015625)"/>
       </defs>
       <use xlink:href="#DejaVuSans-6c"/>
       <use xlink:href="#DejaVuSans-61" x="27.783203"/>
       <use xlink:href="#DejaVuSans-79" x="89.0625"/>
       <use xlink:href="#DejaVuSans-65" x="148.242188"/>
       <use xlink:href="#DejaVuSans-72" x="209.765625"/>
       <use xlink:href="#DejaVuSans-33" x="250.878906"/>
      </g>
     </g>
    </g>
    <g id="xtick_4">
     <g id="line2d_4">
      <g>
       <use xlink:href="#mf2368c22ac" x="190.353043" y="285.654503" style="stroke: #000000; stroke-width: 0.8"/>
      </g>
     </g>
     <g id="text_4">
      <!-- layer4 -->
      <g transform="translate(166.642868 320.267023) rotate(-45) scale(0.1 -0.1)">
       <defs>
        <path id="DejaVuSans-34" d="M 2419 4116 
L 825 1625 
L 2419 1625 
L 2419 4116 
z
M 2253 4666 
L 3047 4666 
L 3047 1625 
L 3713 1625 
L 3713 1100 
L 3047 1100 
L 3047 0 
L 2419 0 
L 2419 1100 
L 313 1100 
L 313 1709 
L 2253 4666 
z
" transform="scale(0.015625)"/>
       </defs>
       <use xlink:href="#DejaVuSans-6c"/>
       <use xlink:href="#DejaVuSans-61" x="27.783203"/>
       <use xlink:href="#DejaVuSans-79" x="89.0625"/>
       <use xlink:href="#DejaVuSans-65" x="148.242188"/>
       <use xlink:href="#DejaVuSans-72" x="209.765625"/>
       <use xlink:href="#DejaVuSans-34" x="250.878906"/>
      </g>
     </g>
    </g>
    <g id="xtick_5">
     <g id="line2d_5">
      <g>
       <use xlink:href="#mf2368c22ac" x="223.857681" y="285.654503" style="stroke: #000000; stroke-width: 0.8"/>
      </g>
     </g>
     <g id="text_5">
      <!-- fc -->
      <g transform="translate(216.0099 304.404629) rotate(-45) scale(0.1 -0.1)">
       <defs>
        <path id="DejaVuSans-66" d="M 2375 4863 
L 2375 4384 
L 1825 4384 
Q 1516 4384 1395 4259 
Q 1275 4134 1275 3809 
L 1275 3500 
L 2222 3500 
L 2222 3053 
L 1275 3053 
L 1275 0 
L 697 0 
L 697 3053 
L 147 3053 
L 147 3500 
L 697 3500 
L 697 3744 
Q 697 4328 969 4595 
Q 1241 4863 1831 4863 
L 2375 4863 
z
" transform="scale(0.015625)"/>
        <path id="DejaVuSans-63" d="M 3122 3366 
L 3122 2828 
Q 2878 2963 2633 3030 
Q 2388 3097 2138 3097 
Q 1578 3097 1268 2742 
Q 959 2388 959 1747 
Q 959 1106 1268 751 
Q 1578 397 2138 397 
Q 2388 397 2633 464 
Q 2878 531 3122 666 
L 3122 134 
Q 2881 22 2623 -34 
Q 2366 -91 2075 -91 
Q 1284 -91 818 406 
Q 353 903 353 1747 
Q 353 2603 823 3093 
Q 1294 3584 2113 3584 
Q 2378 3584 2631 3529 
Q 2884 3475 3122 3366 
z
" transform="scale(0.015625)"/>
       </defs>
       <use xlink:href="#DejaVuSans-66"/>
       <use xlink:href="#DejaVuSans-63" x="35.205078"/>
      </g>
     </g>
    </g>
    <g id="xtick_6">
     <g id="line2d_6">
      <g>
       <use xlink:href="#mf2368c22ac" x="257.362319" y="285.654503" style="stroke: #000000; stroke-width: 0.8"/>
      </g>
     </g>
     <g id="text_6">
      <!-- conv2_2 -->
      <g transform="translate(226.280557 327.317099) rotate(-45) scale(0.1 -0.1)">
       <defs>
        <path id="DejaVuSans-6f" d="M 1959 3097 
Q 1497 3097 1228 2736 
Q 959 2375 959 1747 
Q 959 1119 1226 758 
Q 1494 397 1959 397 
Q 2419 397 2687 759 
Q 2956 1122 2956 1747 
Q 2956 2369 2687 2733 
Q 2419 3097 1959 3097 
z
M 1959 3584 
Q 2709 3584 3137 3096 
Q 3566 2609 3566 1747 
Q 3566 888 3137 398 
Q 2709 -91 1959 -91 
Q 1206 -91 779 398 
Q 353 888 353 1747 
Q 353 2609 779 3096 
Q 1206 3584 1959 3584 
z
" transform="scale(0.015625)"/>
        <path id="DejaVuSans-6e" d="M 3513 2113 
L 3513 0 
L 2938 0 
L 2938 2094 
Q 2938 2591 2744 2837 
Q 2550 3084 2163 3084 
Q 1697 3084 1428 2787 
Q 1159 2491 1159 1978 
L 1159 0 
L 581 0 
L 581 3500 
L 1159 3500 
L 1159 2956 
Q 1366 3272 1645 3428 
Q 1925 3584 2291 3584 
Q 2894 3584 3203 3211 
Q 3513 2838 3513 2113 
z
" transform="scale(0.015625)"/>
        <path id="DejaVuSans-76" d="M 191 3500 
L 800 3500 
L 1894 563 
L 2988 3500 
L 3597 3500 
L 2284 0 
L 1503 0 
L 191 3500 
z
" transform="scale(0.015625)"/>
        <path id="DejaVuSans-5f" d="M 3263 -1063 
L 3263 -1509 
L -63 -1509 
L -63 -1063 
L 3263 -1063 
z
" transform="scale(0.015625)"/>
       </defs>
       <use xlink:href="#DejaVuSans-63"/>
       <use xlink:href="#DejaVuSans-6f" x="54.980469"/>
       <use xlink:href="#DejaVuSans-6e" x="116.162109"/>
       <use xlink:href="#DejaVuSans-76" x="179.541016"/>
       <use xlink:href="#DejaVuSans-32" x="238.720703"/>
       <use xlink:href="#DejaVuSans-5f" x="302.34375"/>
       <use xlink:href="#DejaVuSans-32" x="352.34375"/>
      </g>
     </g>
    </g>
    <g id="xtick_7">
     <g id="line2d_7">
      <g>
       <use xlink:href="#mf2368c22ac" x="290.866957" y="285.654503" style="stroke: #000000; stroke-width: 0.8"/>
      </g>
     </g>
     <g id="text_7">
      <!-- conv3_4 -->
      <g transform="translate(259.785195 327.317099) rotate(-45) scale(0.1 -0.1)">
       <use xlink:href="#DejaVuSans-63"/>
       <use xlink:href="#DejaVuSans-6f" x="54.980469"/>
       <use xlink:href="#DejaVuSans-6e" x="116.162109"/>
       <use xlink:href="#DejaVuSans-76" x="179.541016"/>
       <use xlink:href="#DejaVuSans-33" x="238.720703"/>
       <use xlink:href="#DejaVuSans-5f" x="302.34375"/>
       <use xlink:href="#DejaVuSans-34" x="352.34375"/>
      </g>
     </g>
    </g>
    <g id="xtick_8">
     <g id="line2d_8">
      <g>
       <use xlink:href="#mf2368c22ac" x="324.371596" y="285.654503" style="stroke: #000000; stroke-width: 0.8"/>
      </g>
     </g>
     <g id="text_8">
      <!-- conv4_4 -->
      <g transform="translate(293.289833 327.245283) rotate(-45) scale(0.1 -0.1)">
       <use xlink:href="#DejaVuSans-63"/>
       <use xlink:href="#DejaVuSans-6f" x="54.980469"/>
       <use xlink:href="#DejaVuSans-6e" x="116.162109"/>
       <use xlink:href="#DejaVuSans-76" x="179.541016"/>
       <use xlink:href="#DejaVuSans-34" x="238.720703"/>
       <use xlink:href="#DejaVuSans-5f" x="302.34375"/>
       <use xlink:href="#DejaVuSans-34" x="352.34375"/>
      </g>
     </g>
    </g>
    <g id="xtick_9">
     <g id="line2d_9">
      <g>
       <use xlink:href="#mf2368c22ac" x="357.876234" y="285.654503" style="stroke: #000000; stroke-width: 0.8"/>
      </g>
     </g>
     <g id="text_9">
      <!-- conv5_4 -->
      <g transform="translate(326.794471 327.245283) rotate(-45) scale(0.1 -0.1)">
       <defs>
        <path id="DejaVuSans-35" d="M 691 4666 
L 3169 4666 
L 3169 4134 
L 1269 4134 
L 1269 2991 
Q 1406 3038 1543 3061 
Q 1681 3084 1819 3084 
Q 2600 3084 3056 2656 
Q 3513 2228 3513 1497 
Q 3513 744 3044 326 
Q 2575 -91 1722 -91 
Q 1428 -91 1123 -41 
Q 819 9 494 109 
L 494 744 
Q 775 591 1075 516 
Q 1375 441 1709 441 
Q 2250 441 2565 725 
Q 2881 1009 2881 1497 
Q 2881 1984 2565 2268 
Q 2250 2553 1709 2553 
Q 1456 2553 1204 2497 
Q 953 2441 691 2322 
L 691 4666 
z
" transform="scale(0.015625)"/>
       </defs>
       <use xlink:href="#DejaVuSans-63"/>
       <use xlink:href="#DejaVuSans-6f" x="54.980469"/>
       <use xlink:href="#DejaVuSans-6e" x="116.162109"/>
       <use xlink:href="#DejaVuSans-76" x="179.541016"/>
       <use xlink:href="#DejaVuSans-35" x="238.720703"/>
       <use xlink:href="#DejaVuSans-5f" x="302.34375"/>
       <use xlink:href="#DejaVuSans-34" x="352.34375"/>
      </g>
     </g>
    </g>
    <g id="xtick_10">
     <g id="line2d_10">
      <g>
       <use xlink:href="#mf2368c22ac" x="391.380872" y="285.654503" style="stroke: #000000; stroke-width: 0.8"/>
      </g>
     </g>
     <g id="text_10">
      <!-- fc2 -->
      <g transform="translate(379.034125 308.903596) rotate(-45) scale(0.1 -0.1)">
       <use xlink:href="#DejaVuSans-66"/>
       <use xlink:href="#DejaVuSans-63" x="35.205078"/>
       <use xlink:href="#DejaVuSans-32" x="90.185547"/>
      </g>
     </g>
    </g>
    <g id="text_11">
     <!-- Model layer -->
     <g transform="translate(211.463125 346.582761) scale(0.1 -0.1)">
      <defs>
       <path id="DejaVuSans-4d" d="M 628 4666 
L 1569 4666 
L 2759 1491 
L 3956 4666 
L 4897 4666 
L 4897 0 
L 4281 0 
L 4281 4097 
L 3078 897 
L 2444 897 
L 1241 4097 
L 1241 0 
L 628 0 
L 628 4666 
z
" transform="scale(0.015625)"/>
       <path id="DejaVuSans-64" d="M 2906 2969 
L 2906 4863 
L 3481 4863 
L 3481 0 
L 2906 0 
L 2906 525 
Q 2725 213 2448 61 
Q 2172 -91 1784 -91 
Q 1150 -91 751 415 
Q 353 922 353 1747 
Q 353 2572 751 3078 
Q 1150 3584 1784 3584 
Q 2172 3584 2448 3432 
Q 2725 3281 2906 2969 
z
M 947 1747 
Q 947 1113 1208 752 
Q 1469 391 1925 391 
Q 2381 391 2643 752 
Q 2906 1113 2906 1747 
Q 2906 2381 2643 2742 
Q 2381 3103 1925 3103 
Q 1469 3103 1208 2742 
Q 947 2381 947 1747 
z
" transform="scale(0.015625)"/>
       <path id="DejaVuSans-20" transform="scale(0.015625)"/>
      </defs>
      <use xlink:href="#DejaVuSans-4d"/>
      <use xlink:href="#DejaVuSans-6f" x="86.279297"/>
      <use xlink:href="#DejaVuSans-64" x="147.460938"/>
      <use xlink:href="#DejaVuSans-65" x="210.9375"/>
      <use xlink:href="#DejaVuSans-6c" x="272.460938"/>
      <use xlink:href="#DejaVuSans-20" x="300.244141"/>
      <use xlink:href="#DejaVuSans-6c" x="332.03125"/>
      <use xlink:href="#DejaVuSans-61" x="359.814453"/>
      <use xlink:href="#DejaVuSans-79" x="421.09375"/>
      <use xlink:href="#DejaVuSans-65" x="480.273438"/>
      <use xlink:href="#DejaVuSans-72" x="541.796875"/>
     </g>
    </g>
   </g>
   <g id="matplotlib.axis_2">
    <g id="ytick_1">
     <g id="line2d_11">
      <defs>
       <path id="m2af3b369cc" d="M 0 0 
L -3.5 0 
" style="stroke: #000000; stroke-width: 0.8"/>
      </defs>
      <g>
       <use xlink:href="#m2af3b369cc" x="60.02" y="285.654503" style="stroke: #000000; stroke-width: 0.8"/>
      </g>
     </g>
     <g id="text_12">
      <!-- 0.00 -->
      <g transform="translate(30.754375 289.453722) scale(0.1 -0.1)">
       <defs>
        <path id="DejaVuSans-30" d="M 2034 4250 
Q 1547 4250 1301 3770 
Q 1056 3291 1056 2328 
Q 1056 1369 1301 889 
Q 1547 409 2034 409 
Q 2525 409 2770 889 
Q 3016 1369 3016 2328 
Q 3016 3291 2770 3770 
Q 2525 4250 2034 4250 
z
M 2034 4750 
Q 2819 4750 3233 4129 
Q 3647 3509 3647 2328 
Q 3647 1150 3233 529 
Q 2819 -91 2034 -91 
Q 1250 -91 836 529 
Q 422 1150 422 2328 
Q 422 3509 836 4129 
Q 1250 4750 2034 4750 
z
" transform="scale(0.015625)"/>
        <path id="DejaVuSans-2e" d="M 684 794 
L 1344 794 
L 1344 0 
L 684 0 
L 684 794 
z
" transform="scale(0.015625)"/>
       </defs>
       <use xlink:href="#DejaVuSans-30"/>
       <use xlink:href="#DejaVuSans-2e" x="63.623047"/>
       <use xlink:href="#DejaVuSans-30" x="95.410156"/>
       <use xlink:href="#DejaVuSans-30" x="159.033203"/>
      </g>
     </g>
    </g>
    <g id="ytick_2">
     <g id="line2d_12">
      <g>
       <use xlink:href="#m2af3b369cc" x="60.02" y="232.232831" style="stroke: #000000; stroke-width: 0.8"/>
      </g>
     </g>
     <g id="text_13">
      <!-- 0.05 -->
      <g transform="translate(30.754375 236.03205) scale(0.1 -0.1)">
       <use xlink:href="#DejaVuSans-30"/>
       <use xlink:href="#DejaVuSans-2e" x="63.623047"/>
       <use xlink:href="#DejaVuSans-30" x="95.410156"/>
       <use xlink:href="#DejaVuSans-35" x="159.033203"/>
      </g>
     </g>
    </g>
    <g id="ytick_3">
     <g id="line2d_13">
      <g>
       <use xlink:href="#m2af3b369cc" x="60.02" y="178.811159" style="stroke: #000000; stroke-width: 0.8"/>
      </g>
     </g>
     <g id="text_14">
      <!-- 0.10 -->
      <g transform="translate(30.754375 182.610378) scale(0.1 -0.1)">
       <use xlink:href="#DejaVuSans-30"/>
       <use xlink:href="#DejaVuSans-2e" x="63.623047"/>
       <use xlink:href="#DejaVuSans-31" x="95.410156"/>
       <use xlink:href="#DejaVuSans-30" x="159.033203"/>
      </g>
     </g>
    </g>
    <g id="ytick_4">
     <g id="line2d_14">
      <g>
       <use xlink:href="#m2af3b369cc" x="60.02" y="125.389487" style="stroke: #000000; stroke-width: 0.8"/>
      </g>
     </g>
     <g id="text_15">
      <!-- 0.15 -->
      <g transform="translate(30.754375 129.188706) scale(0.1 -0.1)">
       <use xlink:href="#DejaVuSans-30"/>
       <use xlink:href="#DejaVuSans-2e" x="63.623047"/>
       <use xlink:href="#DejaVuSans-31" x="95.410156"/>
       <use xlink:href="#DejaVuSans-35" x="159.033203"/>
      </g>
     </g>
    </g>
    <g id="ytick_5">
     <g id="line2d_15">
      <g>
       <use xlink:href="#m2af3b369cc" x="60.02" y="71.967815" style="stroke: #000000; stroke-width: 0.8"/>
      </g>
     </g>
     <g id="text_16">
      <!-- 0.20 -->
      <g transform="translate(30.754375 75.767033) scale(0.1 -0.1)">
       <use xlink:href="#DejaVuSans-30"/>
       <use xlink:href="#DejaVuSans-2e" x="63.623047"/>
       <use xlink:href="#DejaVuSans-32" x="95.410156"/>
       <use xlink:href="#DejaVuSans-30" x="159.033203"/>
      </g>
     </g>
    </g>
    <g id="ytick_6">
     <g id="line2d_16">
      <g>
       <use xlink:href="#m2af3b369cc" x="60.02" y="18.546142" style="stroke: #000000; stroke-width: 0.8"/>
      </g>
     </g>
     <g id="text_17">
      <!-- 0.25 -->
      <g transform="translate(30.754375 22.345361) scale(0.1 -0.1)">
       <use xlink:href="#DejaVuSans-30"/>
       <use xlink:href="#DejaVuSans-2e" x="63.623047"/>
       <use xlink:href="#DejaVuSans-32" x="95.410156"/>
       <use xlink:href="#DejaVuSans-35" x="159.033203"/>
      </g>
     </g>
    </g>
    <g id="text_18">
     <!-- Spearman correlation -->
     <g transform="translate(18.674688 202.203033) rotate(-90) scale(0.1 -0.1)">
      <defs>
       <path id="DejaVuSans-53" d="M 3425 4513 
L 3425 3897 
Q 3066 4069 2747 4153 
Q 2428 4238 2131 4238 
Q 1616 4238 1336 4038 
Q 1056 3838 1056 3469 
Q 1056 3159 1242 3001 
Q 1428 2844 1947 2747 
L 2328 2669 
Q 3034 2534 3370 2195 
Q 3706 1856 3706 1288 
Q 3706 609 3251 259 
Q 2797 -91 1919 -91 
Q 1588 -91 1214 -16 
Q 841 59 441 206 
L 441 856 
Q 825 641 1194 531 
Q 1563 422 1919 422 
Q 2459 422 2753 634 
Q 3047 847 3047 1241 
Q 3047 1584 2836 1778 
Q 2625 1972 2144 2069 
L 1759 2144 
Q 1053 2284 737 2584 
Q 422 2884 422 3419 
Q 422 4038 858 4394 
Q 1294 4750 2059 4750 
Q 2388 4750 2728 4690 
Q 3069 4631 3425 4513 
z
" transform="scale(0.015625)"/>
       <path id="DejaVuSans-70" d="M 1159 525 
L 1159 -1331 
L 581 -1331 
L 581 3500 
L 1159 3500 
L 1159 2969 
Q 1341 3281 1617 3432 
Q 1894 3584 2278 3584 
Q 2916 3584 3314 3078 
Q 3713 2572 3713 1747 
Q 3713 922 3314 415 
Q 2916 -91 2278 -91 
Q 1894 -91 1617 61 
Q 1341 213 1159 525 
z
M 3116 1747 
Q 3116 2381 2855 2742 
Q 2594 3103 2138 3103 
Q 1681 3103 1420 2742 
Q 1159 2381 1159 1747 
Q 1159 1113 1420 752 
Q 1681 391 2138 391 
Q 2594 391 2855 752 
Q 3116 1113 3116 1747 
z
" transform="scale(0.015625)"/>
       <path id="DejaVuSans-6d" d="M 3328 2828 
Q 3544 3216 3844 3400 
Q 4144 3584 4550 3584 
Q 5097 3584 5394 3201 
Q 5691 2819 5691 2113 
L 5691 0 
L 5113 0 
L 5113 2094 
Q 5113 2597 4934 2840 
Q 4756 3084 4391 3084 
Q 3944 3084 3684 2787 
Q 3425 2491 3425 1978 
L 3425 0 
L 2847 0 
L 2847 2094 
Q 2847 2600 2669 2842 
Q 2491 3084 2119 3084 
Q 1678 3084 1418 2786 
Q 1159 2488 1159 1978 
L 1159 0 
L 581 0 
L 581 3500 
L 1159 3500 
L 1159 2956 
Q 1356 3278 1631 3431 
Q 1906 3584 2284 3584 
Q 2666 3584 2933 3390 
Q 3200 3197 3328 2828 
z
" transform="scale(0.015625)"/>
       <path id="DejaVuSans-74" d="M 1172 4494 
L 1172 3500 
L 2356 3500 
L 2356 3053 
L 1172 3053 
L 1172 1153 
Q 1172 725 1289 603 
Q 1406 481 1766 481 
L 2356 481 
L 2356 0 
L 1766 0 
Q 1100 0 847 248 
Q 594 497 594 1153 
L 594 3053 
L 172 3053 
L 172 3500 
L 594 3500 
L 594 4494 
L 1172 4494 
z
" transform="scale(0.015625)"/>
       <path id="DejaVuSans-69" d="M 603 3500 
L 1178 3500 
L 1178 0 
L 603 0 
L 603 3500 
z
M 603 4863 
L 1178 4863 
L 1178 4134 
L 603 4134 
L 603 4863 
z
" transform="scale(0.015625)"/>
      </defs>
      <use xlink:href="#DejaVuSans-53"/>
      <use xlink:href="#DejaVuSans-70" x="63.476562"/>
      <use xlink:href="#DejaVuSans-65" x="126.953125"/>
      <use xlink:href="#DejaVuSans-61" x="188.476562"/>
      <use xlink:href="#DejaVuSans-72" x="249.755859"/>
      <use xlink:href="#DejaVuSans-6d" x="289.119141"/>
      <use xlink:href="#DejaVuSans-61" x="386.53125"/>
      <use xlink:href="#DejaVuSans-6e" x="447.810547"/>
      <use xlink:href="#DejaVuSans-20" x="511.189453"/>
      <use xlink:href="#DejaVuSans-63" x="542.976562"/>
      <use xlink:href="#DejaVuSans-6f" x="597.957031"/>
      <use xlink:href="#DejaVuSans-72" x="659.138672"/>
      <use xlink:href="#DejaVuSans-72" x="698.501953"/>
      <use xlink:href="#DejaVuSans-65" x="737.365234"/>
      <use xlink:href="#DejaVuSans-6c" x="798.888672"/>
      <use xlink:href="#DejaVuSans-61" x="826.671875"/>
      <use xlink:href="#DejaVuSans-74" x="887.951172"/>
      <use xlink:href="#DejaVuSans-69" x="927.160156"/>
      <use xlink:href="#DejaVuSans-6f" x="954.943359"/>
      <use xlink:href="#DejaVuSans-6e" x="1016.125"/>
     </g>
    </g>
   </g>
   <g id="LineCollection_1">
    <path d="M 89.839128 93.630572 
L 89.839128 60.989391 
" clip-path="url(#p5fc20ef836)" style="fill: none; stroke: #000000; stroke-width: 1.5"/>
    <path d="M 123.343766 74.940041 
L 123.343766 49.051497 
" clip-path="url(#p5fc20ef836)" style="fill: none; stroke: #000000; stroke-width: 1.5"/>
    <path d="M 156.848404 75.107578 
L 156.848404 40.336493 
" clip-path="url(#p5fc20ef836)" style="fill: none; stroke: #000000; stroke-width: 1.5"/>
    <path d="M 190.353043 124.494008 
L 190.353043 93.519674 
" clip-path="url(#p5fc20ef836)" style="fill: none; stroke: #000000; stroke-width: 1.5"/>
    <path d="M 223.857681 120.601728 
L 223.857681 78.180151 
" clip-path="url(#p5fc20ef836)" style="fill: none; stroke: #000000; stroke-width: 1.5"/>
    <path d="M 257.362319 160.869233 
L 257.362319 117.68901 
" clip-path="url(#p5fc20ef836)" style="fill: none; stroke: #000000; stroke-width: 1.5"/>
    <path d="M 290.866957 157.44249 
L 290.866957 101.171662 
" clip-path="url(#p5fc20ef836)" style="fill: none; stroke: #000000; stroke-width: 1.5"/>
    <path d="M 324.371596 181.484379 
L 324.371596 136.962046 
" clip-path="url(#p5fc20ef836)" style="fill: none; stroke: #000000; stroke-width: 1.5"/>
    <path d="M 357.876234 203.992561 
L 357.876234 171.436981 
" clip-path="url(#p5fc20ef836)" style="fill: none; stroke: #000000; stroke-width: 1.5"/>
    <path d="M 391.380872 222.11854 
L 391.380872 198.185207 
" clip-path="url(#p5fc20ef836)" style="fill: none; stroke: #000000; stroke-width: 1.5"/>
   </g>
   <g id="line2d_17">
    <defs>
     <path id="m446740d181" d="M 5 0 
L -5 -0 
" style="stroke: #000000"/>
    </defs>
    <g clip-path="url(#p5fc20ef836)">
     <use xlink:href="#m446740d181" x="89.839128" y="93.630572" style="stroke: #000000"/>
     <use xlink:href="#m446740d181" x="123.343766" y="74.940041" style="stroke: #000000"/>
     <use xlink:href="#m446740d181" x="156.848404" y="75.107578" style="stroke: #000000"/>
     <use xlink:href="#m446740d181" x="190.353043" y="124.494008" style="stroke: #000000"/>
     <use xlink:href="#m446740d181" x="223.857681" y="120.601728" style="stroke: #000000"/>
     <use xlink:href="#m446740d181" x="257.362319" y="160.869233" style="stroke: #000000"/>
     <use xlink:href="#m446740d181" x="290.866957" y="157.44249" style="stroke: #000000"/>
     <use xlink:href="#m446740d181" x="324.371596" y="181.484379" style="stroke: #000000"/>
     <use xlink:href="#m446740d181" x="357.876234" y="203.992561" style="stroke: #000000"/>
     <use xlink:href="#m446740d181" x="391.380872" y="222.11854" style="stroke: #000000"/>
    </g>
   </g>
   <g id="line2d_18">
    <g clip-path="url(#p5fc20ef836)">
     <use xlink:href="#m446740d181" x="89.839128" y="60.989391" style="stroke: #000000"/>
     <use xlink:href="#m446740d181" x="123.343766" y="49.051497" style="stroke: #000000"/>
     <use xlink:href="#m446740d181" x="156.848404" y="40.336493" style="stroke: #000000"/>
     <use xlink:href="#m446740d181" x="190.353043" y="93.519674" style="stroke: #000000"/>
     <use xlink:href="#m446740d181" x="223.857681" y="78.180151" style="stroke: #000000"/>
     <use xlink:href="#m446740d181" x="257.362319" y="117.68901" style="stroke: #000000"/>
     <use xlink:href="#m446740d181" x="290.866957" y="101.171662" style="stroke: #000000"/>
     <use xlink:href="#m446740d181" x="324.371596" y="136.962046" style="stroke: #000000"/>
     <use xlink:href="#m446740d181" x="357.876234" y="171.436981" style="stroke: #000000"/>
     <use xlink:href="#m446740d181" x="391.380872" y="198.185207" style="stroke: #000000"/>
    </g>
   </g>
   <g id="patch_13">
    <path d="M 60.02 285.654503 
L 60.02 10.8 
" style="fill: none; stroke: #000000; stroke-width: 0.8; stroke-linejoin: miter; stroke-linecap: square"/>
   </g>
   <g id="patch_14">
    <path d="M 421.2 285.654503 
L 421.2 10.8 
" style="fill: none; stroke: #000000; stroke-width: 0.8; stroke-linejoin: miter; stroke-linecap: square"/>
   </g>
   <g id="patch_15">
    <path d="M 60.02 285.654503 
L 421.2 285.654503 
" style="fill: none; stroke: #000000; stroke-width: 0.8; stroke-linejoin: miter; stroke-linecap: square"/>
   </g>
   <g id="patch_16">
    <path d="M 60.02 10.8 
L 421.2 10.8 
" style="fill: none; stroke: #000000; stroke-width: 0.8; stroke-linejoin: miter; stroke-linecap: square"/>
   </g>
   <g id="PathCollection_1">
    <defs>
     <path id="mf7f5997fc1" d="M 0 2.738613 
C 0.726289 2.738613 1.422928 2.450055 1.936492 1.936492 
C 2.450055 1.422928 2.738613 0.726289 2.738613 0 
C 2.738613 -0.726289 2.450055 -1.422928 1.936492 -1.936492 
C 1.422928 -2.450055 0.726289 -2.738613 0 -2.738613 
C -0.726289 -2.738613 -1.422928 -2.450055 -1.936492 -1.936492 
C -2.450055 -1.422928 -2.738613 -0.726289 -2.738613 0 
C -2.738613 0.726289 -2.450055 1.422928 -1.936492 1.936492 
C -1.422928 2.450055 -0.726289 2.738613 0 2.738613 
z
" style="stroke: #000000; stroke-opacity: 0.8"/>
    </defs>
    <g clip-path="url(#p5fc20ef836)">
     <use xlink:href="#mf7f5997fc1" x="257.362319" y="96.541784" style="fill: #fcae91; fill-opacity: 0.8; stroke: #000000; stroke-opacity: 0.8"/>
    </g>
   </g>
   <g id="PathCollection_2">
    <g clip-path="url(#p5fc20ef836)">
     <use xlink:href="#mf7f5997fc1" x="290.866957" y="73.036248" style="fill: #fcae91; fill-opacity: 0.8; stroke: #000000; stroke-opacity: 0.8"/>
    </g>
   </g>
   <g id="PathCollection_3">
    <g clip-path="url(#p5fc20ef836)">
     <use xlink:href="#mf7f5997fc1" x="324.371596" y="114.705152" style="fill: #fcae91; fill-opacity: 0.8; stroke: #000000; stroke-opacity: 0.8"/>
    </g>
   </g>
   <g id="PathCollection_4">
    <g clip-path="url(#p5fc20ef836)">
     <use xlink:href="#mf7f5997fc1" x="357.876234" y="155.305623" style="fill: #fcae91; fill-opacity: 0.8; stroke: #000000; stroke-opacity: 0.8"/>
    </g>
   </g>
   <g id="PathCollection_5">
    <defs>
     <path id="md63ab02d71" d="M 0 2.738613 
C 0.726289 2.738613 1.422928 2.450055 1.936492 1.936492 
C 2.450055 1.422928 2.738613 0.726289 2.738613 0 
C 2.738613 -0.726289 2.450055 -1.422928 1.936492 -1.936492 
C 1.422928 -2.450055 0.726289 -2.738613 0 -2.738613 
C -0.726289 -2.738613 -1.422928 -2.450055 -1.936492 -1.936492 
C -2.450055 -1.422928 -2.738613 -0.726289 -2.738613 0 
C -2.738613 0.726289 -2.450055 1.422928 -1.936492 1.936492 
C -1.422928 2.450055 -0.726289 2.738613 0 2.738613 
z
" style="stroke: #000000; stroke-opacity: 0.8"/>
    </defs>
    <g clip-path="url(#p5fc20ef836)">
     <use xlink:href="#md63ab02d71" x="223.857681" y="57.009746" style="fill: #bdd7e7; fill-opacity: 0.8; stroke: #000000; stroke-opacity: 0.8"/>
    </g>
   </g>
   <g id="PathCollection_6">
    <g clip-path="url(#p5fc20ef836)">
     <use xlink:href="#mf7f5997fc1" x="391.380872" y="186.290193" style="fill: #fcae91; fill-opacity: 0.8; stroke: #000000; stroke-opacity: 0.8"/>
    </g>
   </g>
   <g id="PathCollection_7">
    <g clip-path="url(#p5fc20ef836)">
     <use xlink:href="#md63ab02d71" x="89.839128" y="45.256979" style="fill: #bdd7e7; fill-opacity: 0.8; stroke: #000000; stroke-opacity: 0.8"/>
    </g>
   </g>
   <g id="PathCollection_8">
    <defs>
     <path id="m613fb8bc99" d="M 0 2.738613 
C 0.726289 2.738613 1.422928 2.450055 1.936492 1.936492 
C 2.450055 1.422928 2.738613 0.726289 2.738613 0 
C 2.738613 -0.726289 2.450055 -1.422928 1.936492 -1.936492 
C 1.422928 -2.450055 0.726289 -2.738613 0 -2.738613 
C -0.726289 -2.738613 -1.422928 -2.450055 -1.936492 -1.936492 
C -2.450055 -1.422928 -2.738613 -0.726289 -2.738613 0 
C -2.738613 0.726289 -2.450055 1.422928 -1.936492 1.936492 
C -1.422928 2.450055 -0.726289 2.738613 0 2.738613 
z
" style="stroke: #000000; stroke-opacity: 0.8"/>
    </defs>
    <g clip-path="url(#p5fc20ef836)">
     <use xlink:href="#m613fb8bc99" x="123.343766" y="36.709511" style="fill: #3182bd; fill-opacity: 0.8; stroke: #000000; stroke-opacity: 0.8"/>
    </g>
   </g>
   <g id="PathCollection_9">
    <g clip-path="url(#p5fc20ef836)">
     <use xlink:href="#m613fb8bc99" x="156.848404" y="23.88831" style="fill: #3182bd; fill-opacity: 0.8; stroke: #000000; stroke-opacity: 0.8"/>
    </g>
   </g>
   <g id="PathCollection_10">
    <g clip-path="url(#p5fc20ef836)">
     <use xlink:href="#md63ab02d71" x="190.353043" y="79.446849" style="fill: #bdd7e7; fill-opacity: 0.8; stroke: #000000; stroke-opacity: 0.8"/>
    </g>
   </g>
   <g id="PathCollection_11">
    <g clip-path="url(#p5fc20ef836)">
     <use xlink:href="#mf7f5997fc1" x="257.362319" y="165.989958" style="fill: #fcae91; fill-opacity: 0.8; stroke: #000000; stroke-opacity: 0.8"/>
    </g>
   </g>
   <g id="PathCollection_12">
    <g clip-path="url(#p5fc20ef836)">
     <use xlink:href="#mf7f5997fc1" x="290.866957" y="157.44249" style="fill: #fcae91; fill-opacity: 0.8; stroke: #000000; stroke-opacity: 0.8"/>
    </g>
   </g>
   <g id="PathCollection_13">
    <g clip-path="url(#p5fc20ef836)">
     <use xlink:href="#mf7f5997fc1" x="324.371596" y="182.016459" style="fill: #fcae91; fill-opacity: 0.8; stroke: #000000; stroke-opacity: 0.8"/>
    </g>
   </g>
   <g id="PathCollection_14">
    <g clip-path="url(#p5fc20ef836)">
     <use xlink:href="#mf7f5997fc1" x="357.876234" y="206.590428" style="fill: #fcae91; fill-opacity: 0.8; stroke: #000000; stroke-opacity: 0.8"/>
    </g>
   </g>
   <g id="PathCollection_15">
    <g clip-path="url(#p5fc20ef836)">
     <use xlink:href="#md63ab02d71" x="223.857681" y="118.978886" style="fill: #bdd7e7; fill-opacity: 0.8; stroke: #000000; stroke-opacity: 0.8"/>
    </g>
   </g>
   <g id="PathCollection_16">
    <g clip-path="url(#p5fc20ef836)">
     <use xlink:href="#mf7f5997fc1" x="391.380872" y="220.480063" style="fill: #fcae91; fill-opacity: 0.8; stroke: #000000; stroke-opacity: 0.8"/>
    </g>
   </g>
   <g id="PathCollection_17">
    <g clip-path="url(#p5fc20ef836)">
     <use xlink:href="#md63ab02d71" x="89.839128" y="87.994316" style="fill: #bdd7e7; fill-opacity: 0.8; stroke: #000000; stroke-opacity: 0.8"/>
    </g>
   </g>
   <g id="PathCollection_18">
    <g clip-path="url(#p5fc20ef836)">
     <use xlink:href="#m613fb8bc99" x="123.343766" y="69.830948" style="fill: #3182bd; fill-opacity: 0.8; stroke: #000000; stroke-opacity: 0.8"/>
    </g>
   </g>
   <g id="PathCollection_19">
    <g clip-path="url(#p5fc20ef836)">
     <use xlink:href="#m613fb8bc99" x="156.848404" y="67.694081" style="fill: #3182bd; fill-opacity: 0.8; stroke: #000000; stroke-opacity: 0.8"/>
    </g>
   </g>
   <g id="PathCollection_20">
    <g clip-path="url(#p5fc20ef836)">
     <use xlink:href="#md63ab02d71" x="190.353043" y="115.773586" style="fill: #bdd7e7; fill-opacity: 0.8; stroke: #000000; stroke-opacity: 0.8"/>
    </g>
   </g>
   <g id="PathCollection_21">
    <g clip-path="url(#p5fc20ef836)">
     <use xlink:href="#mf7f5997fc1" x="257.362319" y="155.305623" style="fill: #fcae91; fill-opacity: 0.8; stroke: #000000; stroke-opacity: 0.8"/>
    </g>
   </g>
   <g id="PathCollection_22">
    <g clip-path="url(#p5fc20ef836)">
     <use xlink:href="#mf7f5997fc1" x="290.866957" y="157.44249" style="fill: #fcae91; fill-opacity: 0.8; stroke: #000000; stroke-opacity: 0.8"/>
    </g>
   </g>
   <g id="PathCollection_23">
    <g clip-path="url(#p5fc20ef836)">
     <use xlink:href="#mf7f5997fc1" x="324.371596" y="180.948026" style="fill: #fcae91; fill-opacity: 0.8; stroke: #000000; stroke-opacity: 0.8"/>
    </g>
   </g>
   <g id="PathCollection_24">
    <g clip-path="url(#p5fc20ef836)">
     <use xlink:href="#mf7f5997fc1" x="357.876234" y="201.248261" style="fill: #fcae91; fill-opacity: 0.8; stroke: #000000; stroke-opacity: 0.8"/>
    </g>
   </g>
   <g id="PathCollection_25">
    <g clip-path="url(#p5fc20ef836)">
     <use xlink:href="#md63ab02d71" x="223.857681" y="122.184186" style="fill: #bdd7e7; fill-opacity: 0.8; stroke: #000000; stroke-opacity: 0.8"/>
    </g>
   </g>
   <g id="PathCollection_26">
    <g clip-path="url(#p5fc20ef836)">
     <use xlink:href="#mf7f5997fc1" x="391.380872" y="223.685364" style="fill: #fcae91; fill-opacity: 0.8; stroke: #000000; stroke-opacity: 0.8"/>
    </g>
   </g>
   <g id="PathCollection_27">
    <g clip-path="url(#p5fc20ef836)">
     <use xlink:href="#md63ab02d71" x="89.839128" y="98.678651" style="fill: #bdd7e7; fill-opacity: 0.8; stroke: #000000; stroke-opacity: 0.8"/>
    </g>
   </g>
   <g id="PathCollection_28">
    <g clip-path="url(#p5fc20ef836)">
     <use xlink:href="#m613fb8bc99" x="123.343766" y="79.446849" style="fill: #3182bd; fill-opacity: 0.8; stroke: #000000; stroke-opacity: 0.8"/>
    </g>
   </g>
   <g id="PathCollection_29">
    <g clip-path="url(#p5fc20ef836)">
     <use xlink:href="#m613fb8bc99" x="156.848404" y="81.583716" style="fill: #3182bd; fill-opacity: 0.8; stroke: #000000; stroke-opacity: 0.8"/>
    </g>
   </g>
   <g id="PathCollection_30">
    <g clip-path="url(#p5fc20ef836)">
     <use xlink:href="#md63ab02d71" x="190.353043" y="131.800087" style="fill: #bdd7e7; fill-opacity: 0.8; stroke: #000000; stroke-opacity: 0.8"/>
    </g>
   </g>
   <g id="legend_1">
    <g id="patch_17">
     <path d="M 343.829687 62.834375 
L 414.2 62.834375 
Q 416.2 62.834375 416.2 60.834375 
L 416.2 17.8 
Q 416.2 15.8 414.2 15.8 
L 343.829687 15.8 
Q 341.829687 15.8 341.829687 17.8 
L 341.829687 60.834375 
Q 341.829687 62.834375 343.829687 62.834375 
z
" style="fill: #ffffff; opacity: 0.8; stroke: #cccccc; stroke-linejoin: miter"/>
    </g>
    <g id="text_19">
     <!-- Model -->
     <g transform="translate(364.001562 27.398438) scale(0.1 -0.1)">
      <use xlink:href="#DejaVuSans-4d"/>
      <use xlink:href="#DejaVuSans-6f" x="86.279297"/>
      <use xlink:href="#DejaVuSans-64" x="147.460938"/>
      <use xlink:href="#DejaVuSans-65" x="210.9375"/>
      <use xlink:href="#DejaVuSans-6c" x="272.460938"/>
     </g>
    </g>
    <g id="patch_18">
     <path d="M 345.829687 42.076563 
L 365.829687 42.076563 
L 365.829687 35.076563 
L 345.829687 35.076563 
z
" style="fill: #bdd7e7"/>
    </g>
    <g id="text_20">
     <!-- SimCLR -->
     <g transform="translate(373.829687 42.076563) scale(0.1 -0.1)">
      <defs>
       <path id="DejaVuSans-43" d="M 4122 4306 
L 4122 3641 
Q 3803 3938 3442 4084 
Q 3081 4231 2675 4231 
Q 1875 4231 1450 3742 
Q 1025 3253 1025 2328 
Q 1025 1406 1450 917 
Q 1875 428 2675 428 
Q 3081 428 3442 575 
Q 3803 722 4122 1019 
L 4122 359 
Q 3791 134 3420 21 
Q 3050 -91 2638 -91 
Q 1578 -91 968 557 
Q 359 1206 359 2328 
Q 359 3453 968 4101 
Q 1578 4750 2638 4750 
Q 3056 4750 3426 4639 
Q 3797 4528 4122 4306 
z
" transform="scale(0.015625)"/>
       <path id="DejaVuSans-4c" d="M 628 4666 
L 1259 4666 
L 1259 531 
L 3531 531 
L 3531 0 
L 628 0 
L 628 4666 
z
" transform="scale(0.015625)"/>
       <path id="DejaVuSans-52" d="M 2841 2188 
Q 3044 2119 3236 1894 
Q 3428 1669 3622 1275 
L 4263 0 
L 3584 0 
L 2988 1197 
Q 2756 1666 2539 1819 
Q 2322 1972 1947 1972 
L 1259 1972 
L 1259 0 
L 628 0 
L 628 4666 
L 2053 4666 
Q 2853 4666 3247 4331 
Q 3641 3997 3641 3322 
Q 3641 2881 3436 2590 
Q 3231 2300 2841 2188 
z
M 1259 4147 
L 1259 2491 
L 2053 2491 
Q 2509 2491 2742 2702 
Q 2975 2913 2975 3322 
Q 2975 3731 2742 3939 
Q 2509 4147 2053 4147 
L 1259 4147 
z
" transform="scale(0.015625)"/>
      </defs>
      <use xlink:href="#DejaVuSans-53"/>
      <use xlink:href="#DejaVuSans-69" x="63.476562"/>
      <use xlink:href="#DejaVuSans-6d" x="91.259766"/>
      <use xlink:href="#DejaVuSans-43" x="188.671875"/>
      <use xlink:href="#DejaVuSans-4c" x="258.496094"/>
      <use xlink:href="#DejaVuSans-52" x="314.208984"/>
     </g>
    </g>
    <g id="patch_19">
     <path d="M 345.829687 56.754688 
L 365.829687 56.754688 
L 365.829687 49.754688 
L 345.829687 49.754688 
z
" style="fill: #fcae91"/>
    </g>
    <g id="text_21">
     <!-- VGG19 -->
     <g transform="translate(373.829687 56.754688) scale(0.1 -0.1)">
      <defs>
       <path id="DejaVuSans-56" d="M 1831 0 
L 50 4666 
L 709 4666 
L 2188 738 
L 3669 4666 
L 4325 4666 
L 2547 0 
L 1831 0 
z
" transform="scale(0.015625)"/>
       <path id="DejaVuSans-47" d="M 3809 666 
L 3809 1919 
L 2778 1919 
L 2778 2438 
L 4434 2438 
L 4434 434 
Q 4069 175 3628 42 
Q 3188 -91 2688 -91 
Q 1594 -91 976 548 
Q 359 1188 359 2328 
Q 359 3472 976 4111 
Q 1594 4750 2688 4750 
Q 3144 4750 3555 4637 
Q 3966 4525 4313 4306 
L 4313 3634 
Q 3963 3931 3569 4081 
Q 3175 4231 2741 4231 
Q 1884 4231 1454 3753 
Q 1025 3275 1025 2328 
Q 1025 1384 1454 906 
Q 1884 428 2741 428 
Q 3075 428 3337 486 
Q 3600 544 3809 666 
z
" transform="scale(0.015625)"/>
       <path id="DejaVuSans-39" d="M 703 97 
L 703 672 
Q 941 559 1184 500 
Q 1428 441 1663 441 
Q 2288 441 2617 861 
Q 2947 1281 2994 2138 
Q 2813 1869 2534 1725 
Q 2256 1581 1919 1581 
Q 1219 1581 811 2004 
Q 403 2428 403 3163 
Q 403 3881 828 4315 
Q 1253 4750 1959 4750 
Q 2769 4750 3195 4129 
Q 3622 3509 3622 2328 
Q 3622 1225 3098 567 
Q 2575 -91 1691 -91 
Q 1453 -91 1209 -44 
Q 966 3 703 97 
z
M 1959 2075 
Q 2384 2075 2632 2365 
Q 2881 2656 2881 3163 
Q 2881 3666 2632 3958 
Q 2384 4250 1959 4250 
Q 1534 4250 1286 3958 
Q 1038 3666 1038 3163 
Q 1038 2656 1286 2365 
Q 1534 2075 1959 2075 
z
" transform="scale(0.015625)"/>
      </defs>
      <use xlink:href="#DejaVuSans-56"/>
      <use xlink:href="#DejaVuSans-47" x="68.408203"/>
      <use xlink:href="#DejaVuSans-47" x="145.898438"/>
      <use xlink:href="#DejaVuSans-31" x="223.388672"/>
      <use xlink:href="#DejaVuSans-39" x="287.011719"/>
     </g>
    </g>
   </g>
  </g>
 </g>
 <defs>
  <clipPath id="p5fc20ef836">
   <rect x="60.02" y="10.8" width="361.18" height="274.854503"/>
  </clipPath>
 </defs>
</svg>
