<?xml version="1.0" encoding="utf-8" standalone="no"?>
<!DOCTYPE svg PUBLIC "-//W3C//DTD SVG 1.1//EN"
  "http://www.w3.org/Graphics/SVG/1.1/DTD/svg11.dtd">
<svg xmlns:xlink="http://www.w3.org/1999/xlink" width="432pt" height="360pt" viewBox="0 0 432 360" xmlns="http://www.w3.org/2000/svg" version="1.1">
 <metadata>
  <rdf:RDF xmlns:dc="http://purl.org/dc/elements/1.1/" xmlns:cc="http://creativecommons.org/ns#" xmlns:rdf="http://www.w3.org/1999/02/22-rdf-syntax-ns#">
   <cc:Work>
    <dc:type rdf:resource="http://purl.org/dc/dcmitype/StillImage"/>
    <dc:date>2025-08-01T12:23:45.438129</dc:date>
    <dc:format>image/svg+xml</dc:format>
    <dc:creator>
     <cc:Agent>
      <dc:title>Matplotlib v3.9.2, https://matplotlib.org/</dc:title>
     </cc:Agent>
    </dc:creator>
   </cc:Work>
  </rdf:RDF>
 </metadata>
 <defs>
  <style type="text/css">*{stroke-linejoin: round; stroke-linecap: butt}</style>
 </defs>
 <g id="figure_1">
  <g id="patch_1">
   <path d="M 0 360 
L 432 360 
L 432 0 
L 0 0 
z
" style="fill: #ffffff"/>
  </g>
  <g id="axes_1">
   <g id="patch_2">
    <path d="M 47.72 318.04 
L 411.75 318.04 
L 411.75 10.8 
L 47.72 10.8 
z
" style="fill: #ffffff"/>
   </g>
   <g id="matplotlib.axis_1">
    <g id="xtick_1">
     <g id="line2d_1">
      <path d="M 47.72 318.04 
L 47.72 10.8 
" clip-path="url(#p2972d22c4b)" style="fill: none; stroke: #b0b0b0; stroke-opacity: 0.3; stroke-width: 0.8; stroke-linecap: square"/>
     </g>
     <g id="line2d_2">
      <defs>
       <path id="m167b7c4f0e" d="M 0 0 
L 0 3.5 
" style="stroke: #000000; stroke-width: 0.8"/>
      </defs>
      <g>
       <use xlink:href="#m167b7c4f0e" x="47.72" y="318.04" style="stroke: #000000; stroke-width: 0.8"/>
      </g>
     </g>
     <g id="text_1">
      <!-- 0 -->
      <g transform="translate(44.53875 332.638438) scale(0.1 -0.1)">
       <defs>
        <path id="DejaVuSans-30" d="M 2034 4250 
Q 1547 4250 1301 3770 
Q 1056 3291 1056 2328 
Q 1056 1369 1301 889 
Q 1547 409 2034 409 
Q 2525 409 2770 889 
Q 3016 1369 3016 2328 
Q 3016 3291 2770 3770 
Q 2525 4250 2034 4250 
z
M 2034 4750 
Q 2819 4750 3233 4129 
Q 3647 3509 3647 2328 
Q 3647 1150 3233 529 
Q 2819 -91 2034 -91 
Q 1250 -91 836 529 
Q 422 1150 422 2328 
Q 422 3509 836 4129 
Q 1250 4750 2034 4750 
z
" transform="scale(0.015625)"/>
       </defs>
       <use xlink:href="#DejaVuSans-30"/>
      </g>
     </g>
    </g>
    <g id="xtick_2">
     <g id="line2d_3">
      <path d="M 120.526 318.04 
L 120.526 10.8 
" clip-path="url(#p2972d22c4b)" style="fill: none; stroke: #b0b0b0; stroke-opacity: 0.3; stroke-width: 0.8; stroke-linecap: square"/>
     </g>
     <g id="line2d_4">
      <g>
       <use xlink:href="#m167b7c4f0e" x="120.526" y="318.04" style="stroke: #000000; stroke-width: 0.8"/>
      </g>
     </g>
     <g id="text_2">
      <!-- 100 -->
      <g transform="translate(110.98225 332.638438) scale(0.1 -0.1)">
       <defs>
        <path id="DejaVuSans-31" d="M 794 531 
L 1825 531 
L 1825 4091 
L 703 3866 
L 703 4441 
L 1819 4666 
L 2450 4666 
L 2450 531 
L 3481 531 
L 3481 0 
L 794 0 
L 794 531 
z
" transform="scale(0.015625)"/>
       </defs>
       <use xlink:href="#DejaVuSans-31"/>
       <use xlink:href="#DejaVuSans-30" x="63.623047"/>
       <use xlink:href="#DejaVuSans-30" x="127.246094"/>
      </g>
     </g>
    </g>
    <g id="xtick_3">
     <g id="line2d_5">
      <path d="M 193.332 318.04 
L 193.332 10.8 
" clip-path="url(#p2972d22c4b)" style="fill: none; stroke: #b0b0b0; stroke-opacity: 0.3; stroke-width: 0.8; stroke-linecap: square"/>
     </g>
     <g id="line2d_6">
      <g>
       <use xlink:href="#m167b7c4f0e" x="193.332" y="318.04" style="stroke: #000000; stroke-width: 0.8"/>
      </g>
     </g>
     <g id="text_3">
      <!-- 200 -->
      <g transform="translate(183.78825 332.638438) scale(0.1 -0.1)">
       <defs>
        <path id="DejaVuSans-32" d="M 1228 531 
L 3431 531 
L 3431 0 
L 469 0 
L 469 531 
Q 828 903 1448 1529 
Q 2069 2156 2228 2338 
Q 2531 2678 2651 2914 
Q 2772 3150 2772 3378 
Q 2772 3750 2511 3984 
Q 2250 4219 1831 4219 
Q 1534 4219 1204 4116 
Q 875 4013 500 3803 
L 500 4441 
Q 881 4594 1212 4672 
Q 1544 4750 1819 4750 
Q 2544 4750 2975 4387 
Q 3406 4025 3406 3419 
Q 3406 3131 3298 2873 
Q 3191 2616 2906 2266 
Q 2828 2175 2409 1742 
Q 1991 1309 1228 531 
z
" transform="scale(0.015625)"/>
       </defs>
       <use xlink:href="#DejaVuSans-32"/>
       <use xlink:href="#DejaVuSans-30" x="63.623047"/>
       <use xlink:href="#DejaVuSans-30" x="127.246094"/>
      </g>
     </g>
    </g>
    <g id="xtick_4">
     <g id="line2d_7">
      <path d="M 266.138 318.04 
L 266.138 10.8 
" clip-path="url(#p2972d22c4b)" style="fill: none; stroke: #b0b0b0; stroke-opacity: 0.3; stroke-width: 0.8; stroke-linecap: square"/>
     </g>
     <g id="line2d_8">
      <g>
       <use xlink:href="#m167b7c4f0e" x="266.138" y="318.04" style="stroke: #000000; stroke-width: 0.8"/>
      </g>
     </g>
     <g id="text_4">
      <!-- 300 -->
      <g transform="translate(256.59425 332.638438) scale(0.1 -0.1)">
       <defs>
        <path id="DejaVuSans-33" d="M 2597 2516 
Q 3050 2419 3304 2112 
Q 3559 1806 3559 1356 
Q 3559 666 3084 287 
Q 2609 -91 1734 -91 
Q 1441 -91 1130 -33 
Q 819 25 488 141 
L 488 750 
Q 750 597 1062 519 
Q 1375 441 1716 441 
Q 2309 441 2620 675 
Q 2931 909 2931 1356 
Q 2931 1769 2642 2001 
Q 2353 2234 1838 2234 
L 1294 2234 
L 1294 2753 
L 1863 2753 
Q 2328 2753 2575 2939 
Q 2822 3125 2822 3475 
Q 2822 3834 2567 4026 
Q 2313 4219 1838 4219 
Q 1578 4219 1281 4162 
Q 984 4106 628 3988 
L 628 4550 
Q 988 4650 1302 4700 
Q 1616 4750 1894 4750 
Q 2613 4750 3031 4423 
Q 3450 4097 3450 3541 
Q 3450 3153 3228 2886 
Q 3006 2619 2597 2516 
z
" transform="scale(0.015625)"/>
       </defs>
       <use xlink:href="#DejaVuSans-33"/>
       <use xlink:href="#DejaVuSans-30" x="63.623047"/>
       <use xlink:href="#DejaVuSans-30" x="127.246094"/>
      </g>
     </g>
    </g>
    <g id="xtick_5">
     <g id="line2d_9">
      <path d="M 338.944 318.04 
L 338.944 10.8 
" clip-path="url(#p2972d22c4b)" style="fill: none; stroke: #b0b0b0; stroke-opacity: 0.3; stroke-width: 0.8; stroke-linecap: square"/>
     </g>
     <g id="line2d_10">
      <g>
       <use xlink:href="#m167b7c4f0e" x="338.944" y="318.04" style="stroke: #000000; stroke-width: 0.8"/>
      </g>
     </g>
     <g id="text_5">
      <!-- 400 -->
      <g transform="translate(329.40025 332.638438) scale(0.1 -0.1)">
       <defs>
        <path id="DejaVuSans-34" d="M 2419 4116 
L 825 1625 
L 2419 1625 
L 2419 4116 
z
M 2253 4666 
L 3047 4666 
L 3047 1625 
L 3713 1625 
L 3713 1100 
L 3047 1100 
L 3047 0 
L 2419 0 
L 2419 1100 
L 313 1100 
L 313 1709 
L 2253 4666 
z
" transform="scale(0.015625)"/>
       </defs>
       <use xlink:href="#DejaVuSans-34"/>
       <use xlink:href="#DejaVuSans-30" x="63.623047"/>
       <use xlink:href="#DejaVuSans-30" x="127.246094"/>
      </g>
     </g>
    </g>
    <g id="xtick_6">
     <g id="line2d_11">
      <path d="M 411.75 318.04 
L 411.75 10.8 
" clip-path="url(#p2972d22c4b)" style="fill: none; stroke: #b0b0b0; stroke-opacity: 0.3; stroke-width: 0.8; stroke-linecap: square"/>
     </g>
     <g id="line2d_12">
      <g>
       <use xlink:href="#m167b7c4f0e" x="411.75" y="318.04" style="stroke: #000000; stroke-width: 0.8"/>
      </g>
     </g>
     <g id="text_6">
      <!-- 500 -->
      <g transform="translate(402.20625 332.638438) scale(0.1 -0.1)">
       <defs>
        <path id="DejaVuSans-35" d="M 691 4666 
L 3169 4666 
L 3169 4134 
L 1269 4134 
L 1269 2991 
Q 1406 3038 1543 3061 
Q 1681 3084 1819 3084 
Q 2600 3084 3056 2656 
Q 3513 2228 3513 1497 
Q 3513 744 3044 326 
Q 2575 -91 1722 -91 
Q 1428 -91 1123 -41 
Q 819 9 494 109 
L 494 744 
Q 775 591 1075 516 
Q 1375 441 1709 441 
Q 2250 441 2565 725 
Q 2881 1009 2881 1497 
Q 2881 1984 2565 2268 
Q 2250 2553 1709 2553 
Q 1456 2553 1204 2497 
Q 953 2441 691 2322 
L 691 4666 
z
" transform="scale(0.015625)"/>
       </defs>
       <use xlink:href="#DejaVuSans-35"/>
       <use xlink:href="#DejaVuSans-30" x="63.623047"/>
       <use xlink:href="#DejaVuSans-30" x="127.246094"/>
      </g>
     </g>
    </g>
    <g id="text_7">
     <!-- # principal components -->
     <g transform="translate(169.9225 346.316563) scale(0.1 -0.1)">
      <defs>
       <path id="DejaVuSans-23" d="M 3272 2816 
L 2363 2816 
L 2100 1772 
L 3016 1772 
L 3272 2816 
z
M 2803 4594 
L 2478 3297 
L 3391 3297 
L 3719 4594 
L 4219 4594 
L 3897 3297 
L 4872 3297 
L 4872 2816 
L 3775 2816 
L 3519 1772 
L 4513 1772 
L 4513 1294 
L 3397 1294 
L 3072 0 
L 2572 0 
L 2894 1294 
L 1978 1294 
L 1656 0 
L 1153 0 
L 1478 1294 
L 494 1294 
L 494 1772 
L 1594 1772 
L 1856 2816 
L 850 2816 
L 850 3297 
L 1978 3297 
L 2297 4594 
L 2803 4594 
z
" transform="scale(0.015625)"/>
       <path id="DejaVuSans-20" transform="scale(0.015625)"/>
       <path id="DejaVuSans-70" d="M 1159 525 
L 1159 -1331 
L 581 -1331 
L 581 3500 
L 1159 3500 
L 1159 2969 
Q 1341 3281 1617 3432 
Q 1894 3584 2278 3584 
Q 2916 3584 3314 3078 
Q 3713 2572 3713 1747 
Q 3713 922 3314 415 
Q 2916 -91 2278 -91 
Q 1894 -91 1617 61 
Q 1341 213 1159 525 
z
M 3116 1747 
Q 3116 2381 2855 2742 
Q 2594 3103 2138 3103 
Q 1681 3103 1420 2742 
Q 1159 2381 1159 1747 
Q 1159 1113 1420 752 
Q 1681 391 2138 391 
Q 2594 391 2855 752 
Q 3116 1113 3116 1747 
z
" transform="scale(0.015625)"/>
       <path id="DejaVuSans-72" d="M 2631 2963 
Q 2534 3019 2420 3045 
Q 2306 3072 2169 3072 
Q 1681 3072 1420 2755 
Q 1159 2438 1159 1844 
L 1159 0 
L 581 0 
L 581 3500 
L 1159 3500 
L 1159 2956 
Q 1341 3275 1631 3429 
Q 1922 3584 2338 3584 
Q 2397 3584 2469 3576 
Q 2541 3569 2628 3553 
L 2631 2963 
z
" transform="scale(0.015625)"/>
       <path id="DejaVuSans-69" d="M 603 3500 
L 1178 3500 
L 1178 0 
L 603 0 
L 603 3500 
z
M 603 4863 
L 1178 4863 
L 1178 4134 
L 603 4134 
L 603 4863 
z
" transform="scale(0.015625)"/>
       <path id="DejaVuSans-6e" d="M 3513 2113 
L 3513 0 
L 2938 0 
L 2938 2094 
Q 2938 2591 2744 2837 
Q 2550 3084 2163 3084 
Q 1697 3084 1428 2787 
Q 1159 2491 1159 1978 
L 1159 0 
L 581 0 
L 581 3500 
L 1159 3500 
L 1159 2956 
Q 1366 3272 1645 3428 
Q 1925 3584 2291 3584 
Q 2894 3584 3203 3211 
Q 3513 2838 3513 2113 
z
" transform="scale(0.015625)"/>
       <path id="DejaVuSans-63" d="M 3122 3366 
L 3122 2828 
Q 2878 2963 2633 3030 
Q 2388 3097 2138 3097 
Q 1578 3097 1268 2742 
Q 959 2388 959 1747 
Q 959 1106 1268 751 
Q 1578 397 2138 397 
Q 2388 397 2633 464 
Q 2878 531 3122 666 
L 3122 134 
Q 2881 22 2623 -34 
Q 2366 -91 2075 -91 
Q 1284 -91 818 406 
Q 353 903 353 1747 
Q 353 2603 823 3093 
Q 1294 3584 2113 3584 
Q 2378 3584 2631 3529 
Q 2884 3475 3122 3366 
z
" transform="scale(0.015625)"/>
       <path id="DejaVuSans-61" d="M 2194 1759 
Q 1497 1759 1228 1600 
Q 959 1441 959 1056 
Q 959 750 1161 570 
Q 1363 391 1709 391 
Q 2188 391 2477 730 
Q 2766 1069 2766 1631 
L 2766 1759 
L 2194 1759 
z
M 3341 1997 
L 3341 0 
L 2766 0 
L 2766 531 
Q 2569 213 2275 61 
Q 1981 -91 1556 -91 
Q 1019 -91 701 211 
Q 384 513 384 1019 
Q 384 1609 779 1909 
Q 1175 2209 1959 2209 
L 2766 2209 
L 2766 2266 
Q 2766 2663 2505 2880 
Q 2244 3097 1772 3097 
Q 1472 3097 1187 3025 
Q 903 2953 641 2809 
L 641 3341 
Q 956 3463 1253 3523 
Q 1550 3584 1831 3584 
Q 2591 3584 2966 3190 
Q 3341 2797 3341 1997 
z
" transform="scale(0.015625)"/>
       <path id="DejaVuSans-6c" d="M 603 4863 
L 1178 4863 
L 1178 0 
L 603 0 
L 603 4863 
z
" transform="scale(0.015625)"/>
       <path id="DejaVuSans-6f" d="M 1959 3097 
Q 1497 3097 1228 2736 
Q 959 2375 959 1747 
Q 959 1119 1226 758 
Q 1494 397 1959 397 
Q 2419 397 2687 759 
Q 2956 1122 2956 1747 
Q 2956 2369 2687 2733 
Q 2419 3097 1959 3097 
z
M 1959 3584 
Q 2709 3584 3137 3096 
Q 3566 2609 3566 1747 
Q 3566 888 3137 398 
Q 2709 -91 1959 -91 
Q 1206 -91 779 398 
Q 353 888 353 1747 
Q 353 2609 779 3096 
Q 1206 3584 1959 3584 
z
" transform="scale(0.015625)"/>
       <path id="DejaVuSans-6d" d="M 3328 2828 
Q 3544 3216 3844 3400 
Q 4144 3584 4550 3584 
Q 5097 3584 5394 3201 
Q 5691 2819 5691 2113 
L 5691 0 
L 5113 0 
L 5113 2094 
Q 5113 2597 4934 2840 
Q 4756 3084 4391 3084 
Q 3944 3084 3684 2787 
Q 3425 2491 3425 1978 
L 3425 0 
L 2847 0 
L 2847 2094 
Q 2847 2600 2669 2842 
Q 2491 3084 2119 3084 
Q 1678 3084 1418 2786 
Q 1159 2488 1159 1978 
L 1159 0 
L 581 0 
L 581 3500 
L 1159 3500 
L 1159 2956 
Q 1356 3278 1631 3431 
Q 1906 3584 2284 3584 
Q 2666 3584 2933 3390 
Q 3200 3197 3328 2828 
z
" transform="scale(0.015625)"/>
       <path id="DejaVuSans-65" d="M 3597 1894 
L 3597 1613 
L 953 1613 
Q 991 1019 1311 708 
Q 1631 397 2203 397 
Q 2534 397 2845 478 
Q 3156 559 3463 722 
L 3463 178 
Q 3153 47 2828 -22 
Q 2503 -91 2169 -91 
Q 1331 -91 842 396 
Q 353 884 353 1716 
Q 353 2575 817 3079 
Q 1281 3584 2069 3584 
Q 2775 3584 3186 3129 
Q 3597 2675 3597 1894 
z
M 3022 2063 
Q 3016 2534 2758 2815 
Q 2500 3097 2075 3097 
Q 1594 3097 1305 2825 
Q 1016 2553 972 2059 
L 3022 2063 
z
" transform="scale(0.015625)"/>
       <path id="DejaVuSans-74" d="M 1172 4494 
L 1172 3500 
L 2356 3500 
L 2356 3053 
L 1172 3053 
L 1172 1153 
Q 1172 725 1289 603 
Q 1406 481 1766 481 
L 2356 481 
L 2356 0 
L 1766 0 
Q 1100 0 847 248 
Q 594 497 594 1153 
L 594 3053 
L 172 3053 
L 172 3500 
L 594 3500 
L 594 4494 
L 1172 4494 
z
" transform="scale(0.015625)"/>
       <path id="DejaVuSans-73" d="M 2834 3397 
L 2834 2853 
Q 2591 2978 2328 3040 
Q 2066 3103 1784 3103 
Q 1356 3103 1142 2972 
Q 928 2841 928 2578 
Q 928 2378 1081 2264 
Q 1234 2150 1697 2047 
L 1894 2003 
Q 2506 1872 2764 1633 
Q 3022 1394 3022 966 
Q 3022 478 2636 193 
Q 2250 -91 1575 -91 
Q 1294 -91 989 -36 
Q 684 19 347 128 
L 347 722 
Q 666 556 975 473 
Q 1284 391 1588 391 
Q 1994 391 2212 530 
Q 2431 669 2431 922 
Q 2431 1156 2273 1281 
Q 2116 1406 1581 1522 
L 1381 1569 
Q 847 1681 609 1914 
Q 372 2147 372 2553 
Q 372 3047 722 3315 
Q 1072 3584 1716 3584 
Q 2034 3584 2315 3537 
Q 2597 3491 2834 3397 
z
" transform="scale(0.015625)"/>
      </defs>
      <use xlink:href="#DejaVuSans-23"/>
      <use xlink:href="#DejaVuSans-20" x="83.789062"/>
      <use xlink:href="#DejaVuSans-70" x="115.576172"/>
      <use xlink:href="#DejaVuSans-72" x="179.052734"/>
      <use xlink:href="#DejaVuSans-69" x="220.166016"/>
      <use xlink:href="#DejaVuSans-6e" x="247.949219"/>
      <use xlink:href="#DejaVuSans-63" x="311.328125"/>
      <use xlink:href="#DejaVuSans-69" x="366.308594"/>
      <use xlink:href="#DejaVuSans-70" x="394.091797"/>
      <use xlink:href="#DejaVuSans-61" x="457.568359"/>
      <use xlink:href="#DejaVuSans-6c" x="518.847656"/>
      <use xlink:href="#DejaVuSans-20" x="546.630859"/>
      <use xlink:href="#DejaVuSans-63" x="578.417969"/>
      <use xlink:href="#DejaVuSans-6f" x="633.398438"/>
      <use xlink:href="#DejaVuSans-6d" x="694.580078"/>
      <use xlink:href="#DejaVuSans-70" x="791.992188"/>
      <use xlink:href="#DejaVuSans-6f" x="855.46875"/>
      <use xlink:href="#DejaVuSans-6e" x="916.650391"/>
      <use xlink:href="#DejaVuSans-65" x="980.029297"/>
      <use xlink:href="#DejaVuSans-6e" x="1041.552734"/>
      <use xlink:href="#DejaVuSans-74" x="1104.931641"/>
      <use xlink:href="#DejaVuSans-73" x="1144.140625"/>
     </g>
    </g>
   </g>
   <g id="matplotlib.axis_2">
    <g id="ytick_1">
     <g id="line2d_13">
      <path d="M 47.72 318.04 
L 411.75 318.04 
" clip-path="url(#p2972d22c4b)" style="fill: none; stroke: #b0b0b0; stroke-opacity: 0.3; stroke-width: 0.8; stroke-linecap: square"/>
     </g>
     <g id="line2d_14">
      <defs>
       <path id="mfe8b9d218f" d="M 0 0 
L -3.5 0 
" style="stroke: #000000; stroke-width: 0.8"/>
      </defs>
      <g>
       <use xlink:href="#mfe8b9d218f" x="47.72" y="318.04" style="stroke: #000000; stroke-width: 0.8"/>
      </g>
     </g>
     <g id="text_8">
      <!-- 0.0 -->
      <g transform="translate(24.816875 321.839219) scale(0.1 -0.1)">
       <defs>
        <path id="DejaVuSans-2e" d="M 684 794 
L 1344 794 
L 1344 0 
L 684 0 
L 684 794 
z
" transform="scale(0.015625)"/>
       </defs>
       <use xlink:href="#DejaVuSans-30"/>
       <use xlink:href="#DejaVuSans-2e" x="63.623047"/>
       <use xlink:href="#DejaVuSans-30" x="95.410156"/>
      </g>
     </g>
    </g>
    <g id="ytick_2">
     <g id="line2d_15">
      <path d="M 47.72 259.518095 
L 411.75 259.518095 
" clip-path="url(#p2972d22c4b)" style="fill: none; stroke: #b0b0b0; stroke-opacity: 0.3; stroke-width: 0.8; stroke-linecap: square"/>
     </g>
     <g id="line2d_16">
      <g>
       <use xlink:href="#mfe8b9d218f" x="47.72" y="259.518095" style="stroke: #000000; stroke-width: 0.8"/>
      </g>
     </g>
     <g id="text_9">
      <!-- 0.2 -->
      <g transform="translate(24.816875 263.317314) scale(0.1 -0.1)">
       <use xlink:href="#DejaVuSans-30"/>
       <use xlink:href="#DejaVuSans-2e" x="63.623047"/>
       <use xlink:href="#DejaVuSans-32" x="95.410156"/>
      </g>
     </g>
    </g>
    <g id="ytick_3">
     <g id="line2d_17">
      <path d="M 47.72 200.99619 
L 411.75 200.99619 
" clip-path="url(#p2972d22c4b)" style="fill: none; stroke: #b0b0b0; stroke-opacity: 0.3; stroke-width: 0.8; stroke-linecap: square"/>
     </g>
     <g id="line2d_18">
      <g>
       <use xlink:href="#mfe8b9d218f" x="47.72" y="200.99619" style="stroke: #000000; stroke-width: 0.8"/>
      </g>
     </g>
     <g id="text_10">
      <!-- 0.4 -->
      <g transform="translate(24.816875 204.795409) scale(0.1 -0.1)">
       <use xlink:href="#DejaVuSans-30"/>
       <use xlink:href="#DejaVuSans-2e" x="63.623047"/>
       <use xlink:href="#DejaVuSans-34" x="95.410156"/>
      </g>
     </g>
    </g>
    <g id="ytick_4">
     <g id="line2d_19">
      <path d="M 47.72 142.474286 
L 411.75 142.474286 
" clip-path="url(#p2972d22c4b)" style="fill: none; stroke: #b0b0b0; stroke-opacity: 0.3; stroke-width: 0.8; stroke-linecap: square"/>
     </g>
     <g id="line2d_20">
      <g>
       <use xlink:href="#mfe8b9d218f" x="47.72" y="142.474286" style="stroke: #000000; stroke-width: 0.8"/>
      </g>
     </g>
     <g id="text_11">
      <!-- 0.6 -->
      <g transform="translate(24.816875 146.273504) scale(0.1 -0.1)">
       <defs>
        <path id="DejaVuSans-36" d="M 2113 2584 
Q 1688 2584 1439 2293 
Q 1191 2003 1191 1497 
Q 1191 994 1439 701 
Q 1688 409 2113 409 
Q 2538 409 2786 701 
Q 3034 994 3034 1497 
Q 3034 2003 2786 2293 
Q 2538 2584 2113 2584 
z
M 3366 4563 
L 3366 3988 
Q 3128 4100 2886 4159 
Q 2644 4219 2406 4219 
Q 1781 4219 1451 3797 
Q 1122 3375 1075 2522 
Q 1259 2794 1537 2939 
Q 1816 3084 2150 3084 
Q 2853 3084 3261 2657 
Q 3669 2231 3669 1497 
Q 3669 778 3244 343 
Q 2819 -91 2113 -91 
Q 1303 -91 875 529 
Q 447 1150 447 2328 
Q 447 3434 972 4092 
Q 1497 4750 2381 4750 
Q 2619 4750 2861 4703 
Q 3103 4656 3366 4563 
z
" transform="scale(0.015625)"/>
       </defs>
       <use xlink:href="#DejaVuSans-30"/>
       <use xlink:href="#DejaVuSans-2e" x="63.623047"/>
       <use xlink:href="#DejaVuSans-36" x="95.410156"/>
      </g>
     </g>
    </g>
    <g id="ytick_5">
     <g id="line2d_21">
      <path d="M 47.72 83.952381 
L 411.75 83.952381 
" clip-path="url(#p2972d22c4b)" style="fill: none; stroke: #b0b0b0; stroke-opacity: 0.3; stroke-width: 0.8; stroke-linecap: square"/>
     </g>
     <g id="line2d_22">
      <g>
       <use xlink:href="#mfe8b9d218f" x="47.72" y="83.952381" style="stroke: #000000; stroke-width: 0.8"/>
      </g>
     </g>
     <g id="text_12">
      <!-- 0.8 -->
      <g transform="translate(24.816875 87.7516) scale(0.1 -0.1)">
       <defs>
        <path id="DejaVuSans-38" d="M 2034 2216 
Q 1584 2216 1326 1975 
Q 1069 1734 1069 1313 
Q 1069 891 1326 650 
Q 1584 409 2034 409 
Q 2484 409 2743 651 
Q 3003 894 3003 1313 
Q 3003 1734 2745 1975 
Q 2488 2216 2034 2216 
z
M 1403 2484 
Q 997 2584 770 2862 
Q 544 3141 544 3541 
Q 544 4100 942 4425 
Q 1341 4750 2034 4750 
Q 2731 4750 3128 4425 
Q 3525 4100 3525 3541 
Q 3525 3141 3298 2862 
Q 3072 2584 2669 2484 
Q 3125 2378 3379 2068 
Q 3634 1759 3634 1313 
Q 3634 634 3220 271 
Q 2806 -91 2034 -91 
Q 1263 -91 848 271 
Q 434 634 434 1313 
Q 434 1759 690 2068 
Q 947 2378 1403 2484 
z
M 1172 3481 
Q 1172 3119 1398 2916 
Q 1625 2713 2034 2713 
Q 2441 2713 2670 2916 
Q 2900 3119 2900 3481 
Q 2900 3844 2670 4047 
Q 2441 4250 2034 4250 
Q 1625 4250 1398 4047 
Q 1172 3844 1172 3481 
z
" transform="scale(0.015625)"/>
       </defs>
       <use xlink:href="#DejaVuSans-30"/>
       <use xlink:href="#DejaVuSans-2e" x="63.623047"/>
       <use xlink:href="#DejaVuSans-38" x="95.410156"/>
      </g>
     </g>
    </g>
    <g id="ytick_6">
     <g id="line2d_23">
      <path d="M 47.72 25.430476 
L 411.75 25.430476 
" clip-path="url(#p2972d22c4b)" style="fill: none; stroke: #b0b0b0; stroke-opacity: 0.3; stroke-width: 0.8; stroke-linecap: square"/>
     </g>
     <g id="line2d_24">
      <g>
       <use xlink:href="#mfe8b9d218f" x="47.72" y="25.430476" style="stroke: #000000; stroke-width: 0.8"/>
      </g>
     </g>
     <g id="text_13">
      <!-- 1.0 -->
      <g transform="translate(24.816875 29.229695) scale(0.1 -0.1)">
       <use xlink:href="#DejaVuSans-31"/>
       <use xlink:href="#DejaVuSans-2e" x="63.623047"/>
       <use xlink:href="#DejaVuSans-30" x="95.410156"/>
      </g>
     </g>
    </g>
    <g id="text_14">
     <!-- Cumulative explained variance -->
     <g transform="translate(18.737188 242.046563) rotate(-90) scale(0.1 -0.1)">
      <defs>
       <path id="DejaVuSans-43" d="M 4122 4306 
L 4122 3641 
Q 3803 3938 3442 4084 
Q 3081 4231 2675 4231 
Q 1875 4231 1450 3742 
Q 1025 3253 1025 2328 
Q 1025 1406 1450 917 
Q 1875 428 2675 428 
Q 3081 428 3442 575 
Q 3803 722 4122 1019 
L 4122 359 
Q 3791 134 3420 21 
Q 3050 -91 2638 -91 
Q 1578 -91 968 557 
Q 359 1206 359 2328 
Q 359 3453 968 4101 
Q 1578 4750 2638 4750 
Q 3056 4750 3426 4639 
Q 3797 4528 4122 4306 
z
" transform="scale(0.015625)"/>
       <path id="DejaVuSans-75" d="M 544 1381 
L 544 3500 
L 1119 3500 
L 1119 1403 
Q 1119 906 1312 657 
Q 1506 409 1894 409 
Q 2359 409 2629 706 
Q 2900 1003 2900 1516 
L 2900 3500 
L 3475 3500 
L 3475 0 
L 2900 0 
L 2900 538 
Q 2691 219 2414 64 
Q 2138 -91 1772 -91 
Q 1169 -91 856 284 
Q 544 659 544 1381 
z
M 1991 3584 
L 1991 3584 
z
" transform="scale(0.015625)"/>
       <path id="DejaVuSans-76" d="M 191 3500 
L 800 3500 
L 1894 563 
L 2988 3500 
L 3597 3500 
L 2284 0 
L 1503 0 
L 191 3500 
z
" transform="scale(0.015625)"/>
       <path id="DejaVuSans-78" d="M 3513 3500 
L 2247 1797 
L 3578 0 
L 2900 0 
L 1881 1375 
L 863 0 
L 184 0 
L 1544 1831 
L 300 3500 
L 978 3500 
L 1906 2253 
L 2834 3500 
L 3513 3500 
z
" transform="scale(0.015625)"/>
       <path id="DejaVuSans-64" d="M 2906 2969 
L 2906 4863 
L 3481 4863 
L 3481 0 
L 2906 0 
L 2906 525 
Q 2725 213 2448 61 
Q 2172 -91 1784 -91 
Q 1150 -91 751 415 
Q 353 922 353 1747 
Q 353 2572 751 3078 
Q 1150 3584 1784 3584 
Q 2172 3584 2448 3432 
Q 2725 3281 2906 2969 
z
M 947 1747 
Q 947 1113 1208 752 
Q 1469 391 1925 391 
Q 2381 391 2643 752 
Q 2906 1113 2906 1747 
Q 2906 2381 2643 2742 
Q 2381 3103 1925 3103 
Q 1469 3103 1208 2742 
Q 947 2381 947 1747 
z
" transform="scale(0.015625)"/>
      </defs>
      <use xlink:href="#DejaVuSans-43"/>
      <use xlink:href="#DejaVuSans-75" x="69.824219"/>
      <use xlink:href="#DejaVuSans-6d" x="133.203125"/>
      <use xlink:href="#DejaVuSans-75" x="230.615234"/>
      <use xlink:href="#DejaVuSans-6c" x="293.994141"/>
      <use xlink:href="#DejaVuSans-61" x="321.777344"/>
      <use xlink:href="#DejaVuSans-74" x="383.056641"/>
      <use xlink:href="#DejaVuSans-69" x="422.265625"/>
      <use xlink:href="#DejaVuSans-76" x="450.048828"/>
      <use xlink:href="#DejaVuSans-65" x="509.228516"/>
      <use xlink:href="#DejaVuSans-20" x="570.751953"/>
      <use xlink:href="#DejaVuSans-65" x="602.539062"/>
      <use xlink:href="#DejaVuSans-78" x="662.3125"/>
      <use xlink:href="#DejaVuSans-70" x="721.492188"/>
      <use xlink:href="#DejaVuSans-6c" x="784.96875"/>
      <use xlink:href="#DejaVuSans-61" x="812.751953"/>
      <use xlink:href="#DejaVuSans-69" x="874.03125"/>
      <use xlink:href="#DejaVuSans-6e" x="901.814453"/>
      <use xlink:href="#DejaVuSans-65" x="965.193359"/>
      <use xlink:href="#DejaVuSans-64" x="1026.716797"/>
      <use xlink:href="#DejaVuSans-20" x="1090.193359"/>
      <use xlink:href="#DejaVuSans-76" x="1121.980469"/>
      <use xlink:href="#DejaVuSans-61" x="1181.160156"/>
      <use xlink:href="#DejaVuSans-72" x="1242.439453"/>
      <use xlink:href="#DejaVuSans-69" x="1283.552734"/>
      <use xlink:href="#DejaVuSans-61" x="1311.335938"/>
      <use xlink:href="#DejaVuSans-6e" x="1372.615234"/>
      <use xlink:href="#DejaVuSans-63" x="1435.994141"/>
      <use xlink:href="#DejaVuSans-65" x="1490.974609"/>
     </g>
    </g>
   </g>
   <g id="line2d_25">
    <path d="M 48.44806 310.985834 
L 49.17612 307.961113 
L 50.63224 304.33834 
L 52.08836 301.189707 
L 54.27254 297.299882 
L 57.18478 292.960302 
L 60.09702 289.023139 
L 63.73732 284.489623 
L 67.37762 280.260432 
L 72.47404 274.760468 
L 78.29852 268.893941 
L 83.39494 264.058149 
L 89.94748 258.166903 
L 96.50002 252.567803 
L 103.78062 246.678613 
L 111.06122 241.066156 
L 119.06988 235.200002 
L 127.8066 229.105757 
L 135.81526 223.764045 
L 144.55198 218.192595 
L 154.01676 212.422919 
L 163.48154 206.909295 
L 173.67438 201.223554 
L 184.59528 195.396108 
L 195.51618 189.823752 
L 206.43708 184.497126 
L 218.08604 179.05412 
L 229.735 173.844072 
L 242.11202 168.557789 
L 255.2171 163.221736 
L 268.32218 158.119725 
L 282.15532 152.978052 
L 295.2604 148.331543 
L 309.8216 143.40838 
L 323.65474 138.954603 
L 338.944 134.268023 
L 353.5052 130.032554 
L 368.79446 125.819965 
L 384.08372 121.845404 
L 398.64492 118.280762 
L 411.75 115.276488 
L 411.75 115.276488 
" clip-path="url(#p2972d22c4b)" style="fill: none; stroke: #eff3ff; stroke-width: 1.5; stroke-linecap: square"/>
   </g>
   <g id="line2d_26">
    <path d="M 48.44806 309.616547 
L 49.17612 303.634421 
L 50.63224 298.351376 
L 52.08836 293.773573 
L 53.54448 289.817898 
L 55.72866 284.574063 
L 58.6409 278.444126 
L 61.55314 272.892102 
L 65.19344 266.447106 
L 68.83374 260.531792 
L 73.2021 253.907647 
L 76.8424 248.76648 
L 81.21076 242.978476 
L 86.30718 236.680203 
L 91.4036 230.785809 
L 96.50002 225.237476 
L 101.59644 220.045394 
L 106.69286 215.149439 
L 112.51734 209.877267 
L 118.34182 204.901456 
L 124.1663 200.19802 
L 130.71884 195.181912 
L 137.27138 190.426326 
L 144.55198 185.445343 
L 151.10452 181.213569 
L 159.11318 176.308518 
L 167.12184 171.672066 
L 175.85856 166.889572 
L 184.59528 162.370504 
L 193.332 158.093762 
L 203.52484 153.371197 
L 213.71768 148.917171 
L 223.91052 144.708091 
L 234.83142 140.448997 
L 246.48038 136.148934 
L 258.8574 131.834559 
L 271.23442 127.756975 
L 284.3395 123.671172 
L 297.44458 119.816377 
L 311.27772 115.972397 
L 326.56698 111.972607 
L 341.12818 108.392584 
L 357.1455 104.692743 
L 373.16282 101.235219 
L 389.18014 98.017268 
L 404.4694 95.162593 
L 411.75 93.886809 
L 411.75 93.886809 
" clip-path="url(#p2972d22c4b)" style="fill: none; stroke: #bdd7e7; stroke-width: 1.5; stroke-linecap: square"/>
   </g>
   <g id="line2d_27">
    <path d="M 48.44806 300.756841 
L 49.17612 293.025293 
L 49.90418 287.507212 
L 52.08836 275.134993 
L 53.54448 268.11567 
L 55.0006 262.351341 
L 57.18478 254.872568 
L 59.36896 248.253087 
L 61.55314 242.141015 
L 63.73732 236.5343 
L 66.64956 229.881027 
L 69.5618 223.800553 
L 73.2021 216.86789 
L 76.11434 211.851665 
L 79.75464 206.035031 
L 83.39494 200.57812 
L 87.03524 195.498725 
L 90.67554 190.755407 
L 95.0439 185.45439 
L 99.41226 180.533629 
L 103.78062 175.971734 
L 108.87704 171.054175 
L 113.97346 166.451079 
L 119.06988 162.161234 
L 124.1663 158.142177 
L 129.99078 153.823541 
L 136.54332 149.27009 
L 142.3678 145.495149 
L 148.92034 141.530085 
L 155.47288 137.814279 
L 162.75348 133.93727 
L 170.03408 130.305872 
L 178.04274 126.556053 
L 186.77946 122.741263 
L 195.51618 119.172722 
L 204.2529 115.82737 
L 214.44574 112.170439 
L 223.91052 108.988331 
L 234.83142 105.545991 
L 246.48038 102.124444 
L 258.8574 98.731182 
L 271.23442 95.560262 
L 285.06756 92.254973 
L 299.62876 89.0192 
L 314.18996 86.009018 
L 330.20728 82.932549 
L 346.95266 79.950818 
L 363.69804 77.191524 
L 381.17148 74.534476 
L 397.91686 72.198706 
L 411.75 70.429989 
L 411.75 70.429989 
" clip-path="url(#p2972d22c4b)" style="fill: none; stroke: #6baed6; stroke-width: 1.5; stroke-linecap: square"/>
   </g>
   <g id="line2d_28">
    <path d="M 48.44806 300.278434 
L 49.90418 277.010332 
L 51.3603 263.718292 
L 52.81642 252.858598 
L 54.27254 243.591106 
L 55.72866 235.31281 
L 57.18478 227.862983 
L 59.36896 218.052346 
L 60.82508 212.177062 
L 63.00926 204.40463 
L 65.19344 197.686748 
L 67.37762 191.505028 
L 69.5618 185.956254 
L 71.74598 180.972161 
L 74.65822 175.107729 
L 77.57046 169.791478 
L 80.4827 164.93288 
L 84.123 159.356892 
L 87.03524 155.243213 
L 89.94748 151.483967 
L 93.58778 147.146406 
L 97.22808 143.205303 
L 101.59644 138.868812 
L 105.9648 134.875213 
L 110.33316 131.197314 
L 114.70152 127.803135 
L 119.06988 124.664997 
L 124.1663 121.293674 
L 129.26272 118.18158 
L 135.0872 114.904707 
L 140.91168 111.882455 
L 147.46422 108.737153 
L 154.74482 105.515696 
L 162.02542 102.540201 
L 170.76214 99.256677 
L 178.7708 96.481851 
L 187.50752 93.681526 
L 196.9723 90.865866 
L 207.16514 88.061103 
L 218.8141 85.093826 
L 230.46306 82.347072 
L 243.56814 79.494568 
L 257.40128 76.713828 
L 272.69054 73.882416 
L 288.70786 71.141956 
L 306.1813 68.387476 
L 324.3828 65.747556 
L 343.31236 63.229226 
L 363.69804 60.747967 
L 384.08372 58.484038 
L 404.4694 56.442217 
L 411.75 55.767886 
L 411.75 55.767886 
" clip-path="url(#p2972d22c4b)" style="fill: none; stroke: #3182bd; stroke-width: 1.5; stroke-linecap: square"/>
   </g>
   <g id="line2d_29">
    <path d="M 48.44806 284.289046 
L 49.17612 262.231143 
L 50.63224 237.341037 
L 51.3603 225.981076 
L 52.81642 208.817828 
L 54.27254 193.431327 
L 55.72866 180.296661 
L 57.91284 163.814845 
L 59.36896 154.473126 
L 60.82508 146.406994 
L 62.2812 139.181142 
L 64.46538 130.71238 
L 66.64956 123.172275 
L 68.83374 116.363926 
L 71.01792 110.309836 
L 73.2021 104.866607 
L 75.38628 100.098091 
L 77.57046 95.799023 
L 80.4827 90.693959 
L 82.66688 87.339789 
L 84.85106 84.352628 
L 87.03524 81.652771 
L 89.94748 78.474879 
L 92.13166 76.373289 
L 95.0439 73.87497 
L 98.6842 71.129068 
L 102.3245 68.704589 
L 106.69286 66.116333 
L 111.06122 63.815912 
L 116.15764 61.415095 
L 121.98212 58.949367 
L 128.53466 56.463808 
L 135.0872 54.221831 
L 141.63974 52.196682 
L 149.6484 49.959184 
L 158.38512 47.770731 
L 167.12184 45.800955 
L 177.31468 43.744436 
L 188.96364 41.644892 
L 200.6126 39.772712 
L 213.71768 37.90102 
L 227.55082 36.151879 
L 242.11202 34.528345 
L 258.12934 32.970519 
L 275.60278 31.493005 
L 294.53234 30.13041 
L 314.91802 28.897059 
L 336.75982 27.804981 
L 360.05774 26.872686 
L 384.81178 26.111863 
L 409.56582 25.57748 
L 411.75 25.542015 
L 411.75 25.542015 
" clip-path="url(#p2972d22c4b)" style="fill: none; stroke: #08519c; stroke-width: 1.5; stroke-linecap: square"/>
   </g>
   <g id="line2d_30">
    <path d="M 48.44806 306.610452 
L 49.17612 296.790086 
L 50.63224 284.630694 
L 52.08836 275.016578 
L 53.54448 267.018754 
L 55.0006 260.168412 
L 57.18478 251.131257 
L 59.36896 243.177902 
L 61.55314 235.987362 
L 63.73732 229.581056 
L 65.9215 223.802997 
L 68.83374 216.690682 
L 71.74598 210.16595 
L 74.65822 204.108063 
L 78.29852 197.166276 
L 81.93882 190.771015 
L 85.57912 184.794505 
L 89.94748 178.115859 
L 94.31584 171.861088 
L 98.6842 165.940195 
L 103.78062 159.441494 
L 108.87704 153.348499 
L 114.70152 146.760339 
L 119.79794 141.331613 
L 125.62242 135.447575 
L 131.4469 129.870834 
L 137.27138 124.572185 
L 143.09586 119.540509 
L 149.6484 114.184011 
L 156.20094 109.115391 
L 163.48154 103.787243 
L 170.03408 99.260153 
L 176.58662 94.961987 
L 183.86722 90.456157 
L 191.87588 85.763502 
L 199.88454 81.334711 
L 208.62126 76.790004 
L 217.35798 72.528548 
L 226.0947 68.526595 
L 234.83142 64.764254 
L 244.2962 60.958221 
L 253.03292 57.67333 
L 262.4977 54.348919 
L 272.69054 51.011856 
L 282.15532 48.135752 
L 293.07622 45.063133 
L 303.99712 42.236886 
L 314.91802 39.644359 
L 326.56698 37.120261 
L 338.21594 34.837442 
L 349.13684 32.905141 
L 360.7858 31.056922 
L 373.16282 29.322166 
L 385.53984 27.815384 
L 397.1888 26.60498 
L 408.83776 25.614713 
L 411.75 25.430476 
L 411.75 25.430476 
" clip-path="url(#p2972d22c4b)" style="fill: none; stroke-dasharray: 5.55,2.4; stroke-dashoffset: 0; stroke: #068235; stroke-width: 1.5"/>
   </g>
   <g id="patch_3">
    <path d="M 47.72 318.04 
L 47.72 10.8 
" style="fill: none; stroke: #000000; stroke-width: 0.8; stroke-linejoin: miter; stroke-linecap: square"/>
   </g>
   <g id="patch_4">
    <path d="M 411.75 318.04 
L 411.75 10.8 
" style="fill: none; stroke: #000000; stroke-width: 0.8; stroke-linejoin: miter; stroke-linecap: square"/>
   </g>
   <g id="patch_5">
    <path d="M 47.72 318.04 
L 411.75 318.04 
" style="fill: none; stroke: #000000; stroke-width: 0.8; stroke-linejoin: miter; stroke-linecap: square"/>
   </g>
   <g id="patch_6">
    <path d="M 47.72 10.8 
L 411.75 10.8 
" style="fill: none; stroke: #000000; stroke-width: 0.8; stroke-linejoin: miter; stroke-linecap: square"/>
   </g>
   <g id="legend_1">
    <g id="patch_7">
     <path d="M 340.904687 313.04 
L 404.75 313.04 
Q 406.75 313.04 406.75 311.04 
L 406.75 223.97125 
Q 406.75 221.97125 404.75 221.97125 
L 340.904687 221.97125 
Q 338.904687 221.97125 338.904687 223.97125 
L 338.904687 311.04 
Q 338.904687 313.04 340.904687 313.04 
z
" style="fill: #ffffff; opacity: 0.8; stroke: #cccccc; stroke-linejoin: miter"/>
    </g>
    <g id="line2d_31">
     <path d="M 342.904687 230.069688 
L 352.904687 230.069688 
L 362.904687 230.069688 
" style="fill: none; stroke: #eff3ff; stroke-width: 1.5; stroke-linecap: square"/>
    </g>
    <g id="text_15">
     <!-- layer1 -->
     <g transform="translate(370.904687 233.569688) scale(0.1 -0.1)">
      <defs>
       <path id="DejaVuSans-79" d="M 2059 -325 
Q 1816 -950 1584 -1140 
Q 1353 -1331 966 -1331 
L 506 -1331 
L 506 -850 
L 844 -850 
Q 1081 -850 1212 -737 
Q 1344 -625 1503 -206 
L 1606 56 
L 191 3500 
L 800 3500 
L 1894 763 
L 2988 3500 
L 3597 3500 
L 2059 -325 
z
" transform="scale(0.015625)"/>
      </defs>
      <use xlink:href="#DejaVuSans-6c"/>
      <use xlink:href="#DejaVuSans-61" x="27.783203"/>
      <use xlink:href="#DejaVuSans-79" x="89.0625"/>
      <use xlink:href="#DejaVuSans-65" x="148.242188"/>
      <use xlink:href="#DejaVuSans-72" x="209.765625"/>
      <use xlink:href="#DejaVuSans-31" x="250.878906"/>
     </g>
    </g>
    <g id="line2d_32">
     <path d="M 342.904687 244.747813 
L 352.904687 244.747813 
L 362.904687 244.747813 
" style="fill: none; stroke: #bdd7e7; stroke-width: 1.5; stroke-linecap: square"/>
    </g>
    <g id="text_16">
     <!-- layer2 -->
     <g transform="translate(370.904687 248.247813) scale(0.1 -0.1)">
      <use xlink:href="#DejaVuSans-6c"/>
      <use xlink:href="#DejaVuSans-61" x="27.783203"/>
      <use xlink:href="#DejaVuSans-79" x="89.0625"/>
      <use xlink:href="#DejaVuSans-65" x="148.242188"/>
      <use xlink:href="#DejaVuSans-72" x="209.765625"/>
      <use xlink:href="#DejaVuSans-32" x="250.878906"/>
     </g>
    </g>
    <g id="line2d_33">
     <path d="M 342.904687 259.425938 
L 352.904687 259.425938 
L 362.904687 259.425938 
" style="fill: none; stroke: #6baed6; stroke-width: 1.5; stroke-linecap: square"/>
    </g>
    <g id="text_17">
     <!-- layer3 -->
     <g transform="translate(370.904687 262.925938) scale(0.1 -0.1)">
      <use xlink:href="#DejaVuSans-6c"/>
      <use xlink:href="#DejaVuSans-61" x="27.783203"/>
      <use xlink:href="#DejaVuSans-79" x="89.0625"/>
      <use xlink:href="#DejaVuSans-65" x="148.242188"/>
      <use xlink:href="#DejaVuSans-72" x="209.765625"/>
      <use xlink:href="#DejaVuSans-33" x="250.878906"/>
     </g>
    </g>
    <g id="line2d_34">
     <path d="M 342.904687 274.104063 
L 352.904687 274.104063 
L 362.904687 274.104063 
" style="fill: none; stroke: #3182bd; stroke-width: 1.5; stroke-linecap: square"/>
    </g>
    <g id="text_18">
     <!-- layer4 -->
     <g transform="translate(370.904687 277.604063) scale(0.1 -0.1)">
      <use xlink:href="#DejaVuSans-6c"/>
      <use xlink:href="#DejaVuSans-61" x="27.783203"/>
      <use xlink:href="#DejaVuSans-79" x="89.0625"/>
      <use xlink:href="#DejaVuSans-65" x="148.242188"/>
      <use xlink:href="#DejaVuSans-72" x="209.765625"/>
      <use xlink:href="#DejaVuSans-34" x="250.878906"/>
     </g>
    </g>
    <g id="line2d_35">
     <path d="M 342.904687 288.782188 
L 352.904687 288.782188 
L 362.904687 288.782188 
" style="fill: none; stroke: #08519c; stroke-width: 1.5; stroke-linecap: square"/>
    </g>
    <g id="text_19">
     <!-- fc -->
     <g transform="translate(370.904687 292.282188) scale(0.1 -0.1)">
      <defs>
       <path id="DejaVuSans-66" d="M 2375 4863 
L 2375 4384 
L 1825 4384 
Q 1516 4384 1395 4259 
Q 1275 4134 1275 3809 
L 1275 3500 
L 2222 3500 
L 2222 3053 
L 1275 3053 
L 1275 0 
L 697 0 
L 697 3053 
L 147 3053 
L 147 3500 
L 697 3500 
L 697 3744 
Q 697 4328 969 4595 
Q 1241 4863 1831 4863 
L 2375 4863 
z
" transform="scale(0.015625)"/>
      </defs>
      <use xlink:href="#DejaVuSans-66"/>
      <use xlink:href="#DejaVuSans-63" x="35.205078"/>
     </g>
    </g>
    <g id="line2d_36">
     <path d="M 342.904687 303.460312 
L 352.904687 303.460312 
L 362.904687 303.460312 
" style="fill: none; stroke-dasharray: 5.55,2.4; stroke-dashoffset: 0; stroke: #068235; stroke-width: 1.5"/>
    </g>
    <g id="text_20">
     <!-- neural -->
     <g transform="translate(370.904687 306.960312) scale(0.1 -0.1)">
      <use xlink:href="#DejaVuSans-6e"/>
      <use xlink:href="#DejaVuSans-65" x="63.378906"/>
      <use xlink:href="#DejaVuSans-75" x="124.902344"/>
      <use xlink:href="#DejaVuSans-72" x="188.28125"/>
      <use xlink:href="#DejaVuSans-61" x="229.394531"/>
      <use xlink:href="#DejaVuSans-6c" x="290.673828"/>
     </g>
    </g>
   </g>
  </g>
 </g>
 <defs>
  <clipPath id="p2972d22c4b">
   <rect x="47.72" y="10.8" width="364.03" height="307.24"/>
  </clipPath>
 </defs>
</svg>
